<?xml version="1.0" encoding="UTF-8" standalone="no"?>
<svg
   xmlns:dc="http://purl.org/dc/elements/1.1/"
   xmlns:cc="http://creativecommons.org/ns#"
   xmlns:rdf="http://www.w3.org/1999/02/22-rdf-syntax-ns#"
   xmlns:svg="http://www.w3.org/2000/svg"
   xmlns="http://www.w3.org/2000/svg"
   xmlns:sodipodi="http://sodipodi.sourceforge.net/DTD/sodipodi-0.dtd"
   xmlns:inkscape="http://www.inkscape.org/namespaces/inkscape"
   width="200mm"
   height="200mm"
   viewBox="0 0 200.00001 200"
   version="1.1"
   id="svg8"
   inkscape:version="1.0.1 (3bc2e813f5, 2020-09-07)"
   sodipodi:docname="favicon.svg"
   inkscape:export-filename="E:\projects\npmpackages\vdom\branding\favicon.png"
   inkscape:export-xdpi="25.4"
   inkscape:export-ydpi="25.4">
  <defs
     id="defs2">
    <inkscape:perspective
       sodipodi:type="inkscape:persp3d"
       inkscape:vp_x="0 : 51.499994 : 1"
       inkscape:vp_y="0 : 999.99997 : 0"
       inkscape:vp_z="210.00002 : 51.499994 : 1"
       inkscape:persp3d-origin="105 : 1.9999947 : 1"
       id="perspective73" />
  </defs>
  <sodipodi:namedview
     id="base"
     pagecolor="#ffffff"
     bordercolor="#666666"
     borderopacity="1.0"
     inkscape:pageopacity="0.0"
     inkscape:pageshadow="2"
     inkscape:zoom="0.6779608"
     inkscape:cx="468.3629"
     inkscape:cy="440.11102"
     inkscape:document-units="mm"
     inkscape:current-layer="layer1"
     inkscape:document-rotation="0"
     showgrid="false" />
  <metadata
     id="metadata5">
    <rdf:RDF>
      <cc:Work
         rdf:about="">
        <dc:format>image/svg+xml</dc:format>
        <dc:type
           rdf:resource="http://purl.org/dc/dcmitype/StillImage" />
        <dc:title />
      </cc:Work>
    </rdf:RDF>
  </metadata>
  <g
     inkscape:label="Layer 1"
     inkscape:groupmode="layer"
     id="layer1"
     transform="translate(-73.458599,-71.696905)">
    <path
       id="path142"
       style="fill:#000080;stroke-width:0.841687"
       d="m 178.22013,71.69761 v 49.99854 a 47.618872,49.999869 0 0 1 47.61924,50.00025 47.618872,49.999869 0 0 1 -47.61924,50.00022 V 271.6969 A 95.237734,99.99973 0 0 0 273.4586,171.6964 95.237734,99.99973 0 0 0 178.22013,71.69761 Z" />
    <path
       id="path153"
       style="fill:#0000ff;stroke-width:0.841687"
       d="M 168.69545,71.696905 A 95.237734,99.99973 0 0 0 73.458599,171.6957 95.237734,99.99973 0 0 0 168.69545,271.69619 v -50.00024 a 47.618872,49.999869 0 0 1 -47.61757,-50.00025 47.618872,49.999869 0 0 1 47.61757,-50.00026 z" />
  </g>
</svg>
