<?xml version="1.0" encoding="UTF-8" standalone="no"?>
<svg
   xmlns:dc="http://purl.org/dc/elements/1.1/"
   xmlns:cc="http://creativecommons.org/ns#"
   xmlns:rdf="http://www.w3.org/1999/02/22-rdf-syntax-ns#"
   xmlns:svg="http://www.w3.org/2000/svg"
   xmlns="http://www.w3.org/2000/svg"
   width="42.262421mm"
   height="44.815506mm"
   viewBox="0 0 42.262422 44.815506"
   version="1.1"
   id="svg8">
  <defs
     id="defs2" />
  <metadata
     id="metadata5">
    <rdf:RDF>
      <cc:Work
         rdf:about="">
        <dc:format>image/svg+xml</dc:format>
        <dc:type
           rdf:resource="http://purl.org/dc/dcmitype/StillImage" />
        <dc:title></dc:title>
      </cc:Work>
    </rdf:RDF>
  </metadata>
  <g
     id="layer1"
     transform="translate(-73.458599,-71.696905)">
    <path
       id="path142"
       style="fill:#000080;stroke-width:0.841687"
       d="m 178.22013,71.69761 v 49.99854 a 47.618872,49.999869 0 0 1 47.61924,50.00025 47.618872,49.999869 0 0 1 -47.61924,50.00022 V 271.6969 A 95.237734,99.99973 0 0 0 273.4586,171.6964 95.237734,99.99973 0 0 0 178.22013,71.69761 Z" />
    <path
       id="path153"
       style="fill:#0000ff;stroke-width:0.841687"
       d="M 168.69545,71.696905 A 95.237734,99.99973 0 0 0 73.458599,171.6957 95.237734,99.99973 0 0 0 168.69545,271.69619 v -50.00024 a 47.618872,49.999869 0 0 1 -47.61757,-50.00025 47.618872,49.999869 0 0 1 47.61757,-50.00026 z" />
  </g>
</svg>
