<?xml version="1.0" encoding="UTF-8" standalone="no"?>
<svg
   xmlns:dc="http://purl.org/dc/elements/1.1/"
   xmlns:cc="http://creativecommons.org/ns#"
   xmlns:rdf="http://www.w3.org/1999/02/22-rdf-syntax-ns#"
   xmlns:svg="http://www.w3.org/2000/svg"
   xmlns="http://www.w3.org/2000/svg"
   width="42.262421mm"
   height="44.815506mm"
   viewBox="0 0 42.262422 44.815506"
   version="1.1"
   id="svg8">
  <defs
     id="defs2" />
  <metadata
     id="metadata5">
    <rdf:RDF>
      <cc:Work
         rdf:about="">
        <dc:format>image/svg+xml</dc:format>
        <dc:type
           rdf:resource="http://purl.org/dc/dcmitype/StillImage" />
        <dc:title></dc:title>
      </cc:Work>
    </rdf:RDF>
  </metadata>
  <g
     id="layer1"
     transform="translate(-73.458599,-71.696905)">
    <path
       id="path142"
       style="fill:#000080;stroke-width:0.183152"
       d="M 95.595978,71.697063 V 82.900611 A 10.062444,11.203847 0 0 1 105.6585,94.104544 10.062444,11.203847 0 0 1 95.595978,105.30847 v 11.20394 A 20.124886,22.407692 0 0 0 115.72102,94.104544 20.124886,22.407692 0 0 0 95.595978,71.697063 Z" />
    <path
       id="path153"
       style="fill:#0000ff;stroke-width:0.183152"
       d="M 93.583298,71.696905 A 20.124886,22.407692 0 0 0 73.458599,94.104387 20.124886,22.407692 0 0 0 93.583298,116.51225 V 105.30832 A 10.062444,11.203847 0 0 1 83.521129,94.104387 10.062444,11.203847 0 0 1 93.583298,82.900453 Z" />
  </g>
</svg>
