<?xml version="1.0" encoding="UTF-8" standalone="no"?>
<svg
   xmlns:dc="http://purl.org/dc/elements/1.1/"
   xmlns:cc="http://creativecommons.org/ns#"
   xmlns:rdf="http://www.w3.org/1999/02/22-rdf-syntax-ns#"
   xmlns:svg="http://www.w3.org/2000/svg"
   xmlns="http://www.w3.org/2000/svg"
   xmlns:sodipodi="http://sodipodi.sourceforge.net/DTD/sodipodi-0.dtd"
   xmlns:inkscape="http://www.inkscape.org/namespaces/inkscape"
   width="90.018738mm"
   height="85.702286mm"
   viewBox="0 0 90.018738 85.702286"
   version="1.1"
   id="svg2932"
   inkscape:version="1.0.1 (3bc2e813f5, 2020-09-07)"
   sodipodi:docname="logo.svg">
  <defs
     id="defs2926">
    <meshgradient
       inkscape:collect="always"
       id="meshgradient371"
       gradientUnits="userSpaceOnUse"
       x="77.07074"
       y="46.673496"
       gradientTransform="translate(-51.468503,-55.593751)">
      <meshrow
         id="meshrow4349">
        <meshpatch
           id="meshpatch4351">
          <stop
             path="c 8.67295,9.53915e-06  43.8281,8.92006  52.501,8.92031"
             style="stop-color:#000080;stop-opacity:1"
             id="stop4353" />
          <stop
             path="c 0.000123877,19.0178  -6.96887,39.7088  -6.96887,58.726"
             style="stop-color:#0000d4;stop-opacity:1"
             id="stop4355" />
          <stop
             path="c -8.67295,0.000137899  -18.4609,-1.67249  -27.1338,-1.67249"
             style="stop-color:#00002b;stop-opacity:1"
             id="stop4357" />
          <stop
             path="c -27.5972,-16.2302  -18.3982,-46.9559  -18.3983,-65.9738"
             style="stop-color:#00002b;stop-opacity:1"
             id="stop4359" />
        </meshpatch>
      </meshrow>
    </meshgradient>
    <meshgradient
       inkscape:collect="always"
       id="meshgradient385"
       gradientUnits="userSpaceOnUse"
       x="87.384468"
       y="105.27964"
       gradientTransform="translate(-51.468503,-55.593751)">
      <meshrow
         id="meshrow1191">
        <meshpatch
           id="meshpatch1193">
          <stop
             path="c -3.25606,-11.7079  28.3331,10.3142  38.4575,10.3142"
             style="stop-color:#000055;stop-opacity:1"
             id="stop1195" />
          <stop
             path="c 0,8.56743  0,17.1349  0,25.7023"
             style="stop-color:#0000aa;stop-opacity:1"
             id="stop1197" />
          <stop
             path="c -10.1244,0  -22.7577,11.1504  -32.8823,11.1503"
             style="stop-color:#000055;stop-opacity:1"
             id="stop1199" />
          <stop
             path="c 0.000116392,-8.5674  -16.7256,-34.9759  -5.57519,-47.1668"
             style="stop-color:#00002b;stop-opacity:1"
             id="stop1201" />
        </meshpatch>
      </meshrow>
    </meshgradient>
    <meshgradient
       inkscape:collect="always"
       id="meshgradient2571"
       gradientUnits="userSpaceOnUse"
       x="101.48711"
       y="55.59375"
       gradientTransform="translate(-51.468503,-55.593751)">
      <meshrow
         id="meshrow3137">
        <meshpatch
           id="meshpatch3139">
          <stop
             path="c 21.6962,-12.2654  26.6668,0  40.0001,0"
             style="stop-color:#0000ff;stop-opacity:1"
             id="stop3141" />
          <stop
             path="c 9.75659,0.184392  15.8893,84.5544  -4.46015,88.9201"
             style="stop-color:#00002b;stop-opacity:1"
             id="stop3143" />
          <stop
             path="c -13.3334,9.08493e-05  -26.6667,-3.06627  -35.5398,-8.92022"
             style="stop-color:#00002b;stop-opacity:1"
             id="stop3145" />
          <stop
             path="c 0,-26.6666  -5.29643,-47.758  -0.00015,-79.9999"
             style="stop-color:#0000ff;stop-opacity:1"
             id="stop3147" />
        </meshpatch>
      </meshrow>
    </meshgradient>
    <meshgradient
       inkscape:collect="always"
       id="meshgradient4361"
       gradientUnits="userSpaceOnUse"
       x="14.655562"
       y="61.447983"
       gradientTransform="translate(-16.163263,-52.248911)">
      <meshrow
         id="meshrow14699">
        <meshpatch
           id="meshpatch14701">
          <stop
             path="c 13.3334,-9.20182e-06  41.1629,-13.3805  54.4962,-13.3804"
             style="stop-color:#00ccff;stop-opacity:1"
             id="stop14703" />
          <stop
             path="c 29.27,36.9807  28.1549,96.8201  11.1506,104.254"
             style="stop-color:#0000ff;stop-opacity:1"
             id="stop14705" />
          <stop
             path="c -13.3334,-0.000876488  -37.2598,26.481  -73.1729,0.279373"
             style="stop-color:#0066ff;stop-opacity:1"
             id="stop14707" />
          <stop
             path="c 0.000320983,-26.6681  -3.34554,-59.1888  7.5261,-91.153"
             style="stop-color:#0066ff;stop-opacity:1"
             id="stop14709" />
        </meshpatch>
      </meshrow>
    </meshgradient>
    <meshgradient
       inkscape:collect="always"
       id="meshgradient6727"
       gradientUnits="userSpaceOnUse"
       x="37.91132"
       y="66.952019"
       gradientTransform="translate(-16.163263,-52.248911)">
      <meshrow
         id="meshrow8421">
        <meshpatch
           id="meshpatch8423">
          <stop
             path="c -2.3168,-15.053  18.2523,-9.00056  24.2709,5.29643"
             style="stop-color:#000080;stop-opacity:1"
             id="stop8425" />
          <stop
             path="c 0,2.88258  -0.27876,5.4864  -0.278992,8.36898"
             style="stop-color:#000080;stop-opacity:1"
             id="stop8427" />
          <stop
             path="c -5.48824,-3.342e-05  -10.6979,0.278757  -16.1865,0.278757"
             style="stop-color:#0066ff;stop-opacity:1"
             id="stop8429" />
          <stop
             path="c -8.64155,-0.373743  -7.80528,-11.0618  -7.80544,-13.9442"
             style="stop-color:#000080;stop-opacity:1"
             id="stop8431" />
        </meshpatch>
      </meshrow>
    </meshgradient>
    <meshgradient
       inkscape:collect="always"
       id="meshgradient8433"
       gradientUnits="userSpaceOnUse"
       x="11.703098"
       y="63.152302"
       gradientTransform="translate(-16.163266,-52.248916)">
      <meshrow
         id="meshrow9095">
        <meshpatch
           id="meshpatch9097">
          <stop
             path="c 15.3396,-6.78693e-06  35.1395,3.06636  50.4791,3.06636"
             style="stop-color:#0066ff;stop-opacity:1"
             id="stop9099" />
          <stop
             path="c 0,23.9108  0,47.8215  0,71.7323"
             style="stop-color:#0000ff;stop-opacity:1"
             id="stop9101" />
          <stop
             path="c -33.1802,23.6946  -53.2586,21.1857  -56.333,6.69023"
             style="stop-color:#0000d4;stop-opacity:1"
             id="stop9103" />
          <stop
             path="c -19.5133,-29.486  -10.0354,-57.5782  5.8539,-81.4889"
             style="stop-color:#00ffcc;stop-opacity:1"
             id="stop9105" />
        </meshpatch>
      </meshrow>
    </meshgradient>
  </defs>
  <sodipodi:namedview
     id="base"
     pagecolor="#ffffff"
     bordercolor="#666666"
     borderopacity="1.0"
     inkscape:pageopacity="0.0"
     inkscape:pageshadow="2"
     inkscape:zoom="0.94914512"
     inkscape:cx="305.12558"
     inkscape:cy="176.01019"
     inkscape:document-units="mm"
     inkscape:current-layer="layer1"
     inkscape:document-rotation="0"
     showgrid="false" />
  <metadata
     id="metadata2929">
    <rdf:RDF>
      <cc:Work
         rdf:about="">
        <dc:format>image/svg+xml</dc:format>
        <dc:type
           rdf:resource="http://purl.org/dc/dcmitype/StillImage" />
        <dc:title />
      </cc:Work>
    </rdf:RDF>
  </metadata>
  <g
     inkscape:label="Layer 1"
     inkscape:groupmode="layer"
     id="layer1">
    <path
       id="path2934-12"
       style="fill:#000080;stroke-width:0.115563"
       d="M 44,5.702527 A 39.999999,39.999999 0 0 1 84.000131,45.702669 39.999999,39.999999 0 0 1 44,85.702289 v -19.9998 A 19.999999,19.999999 0 0 0 64.000321,45.702669 19.999999,19.999999 0 0 0 44,25.702347 Z" />
    <path
       id="path2934-8-9"
       style="fill:url(#meshgradient2571);fill-opacity:1;stroke-width:0.115563"
       d="M 50.018611,79.999789 A 39.999999,39.999999 0 0 0 90.01874,39.999626 39.999999,39.999999 0 0 0 50.018611,0 v 19.99982 a 20,20 0 0 1 20.00031,19.999806 20,20 0 0 1 -20.00031,20.000343 z" />
    <path
       id="path2934-12-5"
       style="fill:#aa0000;stroke-width:0.115563"
       d="M 50.018231,64.775399 A 19.999999,19.999999 0 0 1 44,65.702479 v 19.99981 a 39.999999,39.999999 0 0 0 30.373341,-13.97227 39.999999,39.999999 0 0 1 -0.1571,0.1204 39.999999,39.999999 0 0 1 -0.21807,0.16485 39.999999,39.999999 0 0 1 -0.21963,0.1633 39.999999,39.999999 0 0 1 -0.22066,0.16175 39.999999,39.999999 0 0 1 -0.22169,0.16019 39.999999,39.999999 0 0 1 -0.22272,0.15865 39.999999,39.999999 0 0 1 -0.22376,0.15709 39.999999,39.999999 0 0 1 -0.22531,0.15555 39.999999,39.999999 0 0 1 -0.22583,0.154 39.999999,39.999999 0 0 1 -0.22686,0.15296 39.999999,39.999999 0 0 1 -0.22841,0.15089 39.999999,39.999999 0 0 1 -0.22892,0.14935 39.999999,39.999999 0 0 1 -0.23049,0.14779 39.999999,39.999999 0 0 1 -0.23099,0.14625 39.999999,39.999999 0 0 1 -0.23203,0.14469 39.999999,39.999999 0 0 1 -0.23306,0.14315 39.999999,39.999999 0 0 1 -0.2341,0.14159 39.999999,39.999999 0 0 1 -0.23512,0.14004 39.999999,39.999999 0 0 1 -0.23617,0.13798 39.999999,39.999999 0 0 1 -0.23719,0.13694 39.999999,39.999999 0 0 1 -0.23771,0.13488 39.999999,39.999999 0 0 1 -0.23875,0.13332 39.999999,39.999999 0 0 1 -0.23978,0.13178 39.999999,39.999999 0 0 1 -0.24081,0.13022 39.999999,39.999999 0 0 1 -0.24133,0.12868 39.999999,39.999999 0 0 1 -0.24236,0.1266 39.999999,39.999999 0 0 1 -0.2434,0.12558 39.999999,39.999999 0 0 1 -0.24391,0.1235 39.999999,39.999999 0 0 1 -0.24495,0.12144 39.999999,39.999999 0 0 1 -0.24597,0.12041 39.999999,39.999999 0 0 1 -0.2465,0.11834 39.999999,39.999999 0 0 1 -0.24702,0.11679 39.999999,39.999999 0 0 1 -0.24855,0.11524 39.999999,39.999999 0 0 1 -0.24856,0.11317 39.999999,39.999999 0 0 1 -0.25013,0.11213 39.999999,39.999999 0 0 1 -0.25011,0.10956 39.999999,39.999999 0 0 1 -0.25115,0.10852 39.999999,39.999999 0 0 1 -0.25218,0.10645 39.999999,39.999999 0 0 1 -0.2527,0.10491 39.999999,39.999999 0 0 1 -0.25321,0.10335 39.999999,39.999999 0 0 1 -0.25425,0.10129 39.999999,39.999999 0 0 1 -0.25476,0.0992 39.999999,39.999999 0 0 1 -0.25528,0.0982 39.999999,39.999999 0 0 1 -0.25632,0.0961 39.999999,39.999999 0 0 1 -0.25683,0.094 39.999999,39.999999 0 0 1 -0.25735,0.093 39.999999,39.999999 0 0 1 -0.25787,0.0904 39.999999,39.999999 0 0 1 -0.2589,0.0894 39.999999,39.999999 0 0 1 -0.2589,0.0873 39.999999,39.999999 0 0 1 -0.25993,0.0853 39.999999,39.999999 0 0 1 -0.26045,0.0837 39.999999,39.999999 0 0 1 -0.26096,0.0822 39.999999,39.999999 0 0 1 -0.26148,0.0801 39.999999,39.999999 0 0 1 -0.26252,0.0786 39.999999,39.999999 0 0 1 -0.26251,0.0765 39.999999,39.999999 0 0 1 -0.26303,0.0749 39.999999,39.999999 0 0 1 -0.26355,0.0729 39.999999,39.999999 0 0 1 -0.26407,0.0713 39.999999,39.999999 0 0 1 -0.26458,0.0692 39.999999,39.999999 0 0 1 -0.2651,0.0677 39.999999,39.999999 0 0 1 -0.26562,0.0656 39.999999,39.999999 0 0 1 -0.26613,0.0641 39.999999,39.999999 0 0 1 -0.26614,0.062 39.999999,39.999999 0 0 1 -0.26716,0.0605 39.999999,39.999999 0 0 1 -0.26717,0.0584 39.999999,39.999999 0 0 1 -0.26768,0.0568 39.999999,39.999999 0 0 1 -0.26768,0.0548 39.999999,39.999999 0 0 1 -0.26872,0.0527 39.999999,39.999999 0 0 1 -0.26872,0.0512 39.999999,39.999999 0 0 1 -0.26923,0.0496 39.999999,39.999999 0 0 1 -0.26924,0.0476 39.999999,39.999999 0 0 1 -0.26975,0.0455 39.999999,39.999999 0 0 1 -0.26975,0.0439 39.999999,39.999999 0 0 1 -0.27027,0.0419 39.999999,39.999999 0 0 1 -0.27078,0.0398 39.999999,39.999999 0 0 1 -0.27079,0.0382 39.999999,39.999999 0 0 1 -0.2713,0.0367 39.999999,39.999999 0 0 1 -0.2713,0.0341 39.999999,39.999999 0 0 1 -0.27182,0.0331 39.999999,39.999999 0 0 1 -0.27182,0.0305 39.999999,39.999999 0 0 1 -0.27181,0.0289 39.999999,39.999999 0 0 1 -0.27234,0.0274 39.999999,39.999999 0 0 1 -0.27233,0.0248 39.999999,39.999999 0 0 1 -0.27234,0.0238 39.999999,39.999999 0 0 1 -0.27285,0.0212 39.999999,39.999999 0 0 1 -0.27285,0.0196 39.999999,39.999999 0 0 1 -0.27285,0.0181 39.999999,39.999999 0 0 1 -0.27337,0.0155 39.999999,39.999999 0 0 1 -0.27337,0.014 39.999999,39.999999 0 0 1 -0.27285,0.0124 39.999999,39.999999 0 0 1 -0.27337,0.0103 39.999999,39.999999 0 0 1 -0.27388,0.008 39.999999,39.999999 0 0 1 -0.27337,0.007 39.999999,39.999999 0 0 1 -0.27337,0.005 39.999999,39.999999 0 0 1 -0.27337,0.003 39.999999,39.999999 0 0 1 -0.27389,0.001 z" />
    <path
       id="path143"
       style="fill:url(#meshgradient371);fill-opacity:1;stroke-width:0.115563"
       d="M 50.018091,5.100001e-5 44.000371,5.702544 v 19.999814 a 19.999999,19.999999 0 0 1 19.99981,20.000331 19.999999,19.999999 0 0 1 -3.53311,11.35073 20,20 0 0 0 0.0956,-0.0584 20,20 0 0 0 0.16381,-0.10232 20,20 0 0 0 0.16278,-0.10438 20,20 0 0 0 0.16175,-0.10594 20,20 0 0 0 0.16071,-0.10749 20,20 0 0 0 0.1602,-0.10903 20,20 0 0 0 0.15864,-0.11059 20,20 0 0 0 0.15762,-0.11214 20,20 0 0 0 0.15658,-0.11369 20,20 0 0 0 0.15555,-0.11524 20,20 0 0 0 0.15399,-0.11679 20,20 0 0 0 0.15348,-0.11782 20,20 0 0 0 0.15193,-0.11989 20,20 0 0 0 0.15089,-0.12092 20,20 0 0 0 0.14986,-0.12247 20,20 0 0 0 0.14832,-0.12403 20,20 0 0 0 0.14727,-0.12505 20,20 0 0 0 0.14625,-0.12713 20,20 0 0 0 0.14469,-0.12816 20,20 0 0 0 0.14366,-0.1297 20,20 0 0 0 0.14211,-0.13074 20,20 0 0 0 0.14108,-0.1323 20,20 0 0 0 0.14004,-0.13384 20,20 0 0 0 0.13849,-0.13487 20,20 0 0 0 0.13695,-0.13643 20,20 0 0 0 0.1359,-0.13797 20,20 0 0 0 0.13437,-0.13902 20,20 0 0 0 0.13332,-0.14004 20,20 0 0 0 0.13177,-0.14159 20,20 0 0 0 0.13023,-0.14314 20,20 0 0 0 0.12919,-0.14418 20,20 0 0 0 0.12764,-0.14521 20,20 0 0 0 0.12609,-0.14676 20,20 0 0 0 0.12506,-0.1478 20,20 0 0 0 0.12299,-0.14883 20,20 0 0 0 0.12196,-0.15037 20,20 0 0 0 0.1204,-0.1509 20,20 0 0 0 0.11937,-0.15296 20,20 0 0 0 0.11731,-0.15348 20,20 0 0 0 0.11627,-0.15451 20,20 0 0 0 0.11421,-0.15607 20,20 0 0 0 0.11317,-0.15709 20,20 0 0 0 0.1111,-0.15813 20,20 0 0 0 0.11007,-0.15917 20,20 0 0 0 0.10852,-0.16019 20,20 0 0 0 0.10697,-0.16123 20,20 0 0 0 0.10491,-0.16227 20,20 0 0 0 0.10387,-0.1633 20,20 0 0 0 0.10232,-0.16433 20,20 0 0 0 0.10025,-0.16536 20,20 0 0 0 0.0992,-0.16588 20,20 0 0 0 0.0971,-0.16743 20,20 0 0 0 0.0956,-0.16795 20,20 0 0 0 0.094,-0.16898 20,20 0 0 0 0.0925,-0.17002 20,20 0 0 0 0.091,-0.17105 20,20 0 0 0 0.0889,-0.17157 20,20 0 0 0 0.0873,-0.17259 20,20 0 0 0 0.0858,-0.17312 20,20 0 0 0 0.0842,-0.17415 20,20 0 0 0 0.0822,-0.17518 20,20 0 0 0 0.0806,-0.1757 20,20 0 0 0 0.0791,-0.17674 20,20 0 0 0 0.0775,-0.17724 20,20 0 0 0 0.0755,-0.17829 20,20 0 0 0 0.0739,-0.1788 20,20 0 0 0 0.0724,-0.17932 20,20 0 0 0 0.0703,-0.18035 20,20 0 0 0 0.0687,-0.18087 20,20 0 0 0 0.0667,-0.18138 20,20 0 0 0 0.0651,-0.1819 20,20 0 0 0 0.0636,-0.18293 20,20 0 0 0 0.0615,-0.18346 20,20 0 0 0 0.0599,-0.18397 20,20 0 0 0 0.0579,-0.18448 20,20 0 0 0 0.0563,-0.185 20,20 0 0 0 0.0543,-0.18552 20,20 0 0 0 0.0527,-0.18604 20,20 0 0 0 0.0501,-0.18707 20,20 0 0 0 0.0496,-0.18706 20,20 0 0 0 0.0465,-0.18759 20,20 0 0 0 0.0455,-0.1881 20,20 0 0 0 0.0439,-0.1881 20,20 0 0 0 0.0413,-0.189138 20,20 0 0 0 0.0403,-0.189137 20,20 0 0 0 0.0377,-0.189651 20,20 0 0 0 0.0367,-0.190169 20,20 0 0 0 0.0341,-0.19017 20,20 0 0 0 0.0326,-0.190687 20,20 0 0 0 0.031,-0.191202 20,20 0 0 0 0.0289,-0.191203 20,20 0 0 0 0.0269,-0.191201 20,20 0 0 0 0.0253,-0.192239 20,20 0 0 0 0.0233,-0.191719 20,20 0 0 0 0.0212,-0.192236 20,20 0 0 0 0.0196,-0.192236 20,20 0 0 0 0.0181,-0.192754 20,20 0 0 0 0.0155,-0.192752 20,20 0 0 0 0.0145,-0.19327 20,20 0 0 0 0.0119,-0.192754 20,20 0 0 0 0.0103,-0.19327 20,20 0 0 0 0.008,-0.19327 20,20 0 0 0 0.007,-0.193268 20,20 0 0 0 0.005,-0.19327 20,20 0 0 0 0.003,-0.193786 20,20 0 0 0 0.001,-0.19327 20,20 0 0 0 0,-0.07907 20,20 0 0 0 -0.002,-0.193786 20,20 0 0 0 -0.004,-0.19327 20,20 0 0 0 -0.006,-0.19327 20,20 0 0 0 -0.007,-0.193271 20,20 0 0 0 -0.009,-0.19327 20,20 0 0 0 -0.0109,-0.19327 20,20 0 0 0 -0.0129,-0.192752 20,20 0 0 0 -0.015,-0.192754 20,20 0 0 0 -0.0165,-0.192751 20,20 0 0 0 -0.0186,-0.192755 20,20 0 0 0 -0.0202,-0.192235 20,20 0 0 0 -0.0222,-0.192236 20,20 0 0 0 -0.0243,-0.19172 20,20 0 0 0 -0.0258,-0.191719 20,20 0 0 0 -0.0279,-0.19172 20,20 0 0 0 -0.0294,-0.191204 20,20 0 0 0 -0.0315,-0.190685 20,20 0 0 0 -0.0336,-0.190688 20,20 0 0 0 -0.0351,-0.190167 20,20 0 0 0 -0.0372,-0.189653 20,20 0 0 0 -0.0388,-0.189653 20,20 0 0 0 -0.0403,-0.189135 20,20 0 0 0 -0.0429,-0.188619 20,20 0 0 0 -0.0439,-0.188103 20,20 0 0 0 -0.0465,-0.188103 20,20 0 0 0 -0.0481,-0.187584 20,20 0 0 0 -0.0496,-0.186552 20,20 0 0 0 -0.0517,-0.186553 20,20 0 0 0 -0.0532,-0.186034 20,20 0 0 0 -0.0553,-0.18552 20,20 0 0 0 -0.0568,-0.184483 20,20 0 0 0 -0.0589,-0.184486 20,20 0 0 0 -0.0605,-0.183452 20,20 0 0 0 -0.0625,-0.183451 20,20 0 0 0 -0.0641,-0.182417 20,20 0 0 0 -0.0656,-0.181902 20,20 0 0 0 -0.0677,-0.181385 20,20 0 0 0 -0.0692,-0.18035 20,20 0 0 0 -0.0713,-0.179832 20,20 0 0 0 -0.0729,-0.179319 20,20 0 0 0 -0.0744,-0.178284 20,20 0 0 0 -0.076,-0.177766 20,20 0 0 0 -0.078,-0.177249 20,20 0 0 0 -0.0801,-0.176218 20,20 0 0 0 -0.0811,-0.175699 20,20 0 0 0 -0.0832,-0.174668 20,20 0 0 0 -0.0847,-0.173632 20,20 0 0 0 -0.0863,-0.173115 20,20 0 0 0 -0.0884,-0.172085 20,20 0 0 0 -0.0899,-0.171563 20,20 0 0 0 -0.0915,-0.170532 20,20 0 0 0 -0.093,-0.1695 20,20 0 0 0 -0.0946,-0.168466 20,20 0 0 0 -0.0961,-0.167947 20,20 0 0 0 -0.0982,-0.166399 20,20 0 0 0 -0.0997,-0.16588 20,20 0 0 0 -0.10126,-0.164845 20,20 0 0 0 -0.10232,-0.163814 20,20 0 0 0 -0.10438,-0.163298 20,20 0 0 0 -0.10594,-0.161748 20,20 0 0 0 -0.10749,-0.160713 20,20 0 0 0 -0.10903,-0.159679 20,20 0 0 0 -0.11059,-0.158647 20,20 0 0 0 -0.11214,-0.157615 20,20 0 0 0 -0.11369,-0.156578 20,20 0 0 0 -0.11524,-0.155545 20,20 0 0 0 -0.11627,-0.154514 20,20 0 0 0 -0.11834,-0.152961 20,20 0 0 0 -0.11937,-0.152445 20,20 0 0 0 -0.12144,-0.150379 20,20 0 0 0 -0.12247,-0.149863 20,20 0 0 0 -0.12402,-0.148828 20,20 0 0 0 -0.12506,-0.147277 20,20 0 0 0 -0.12713,-0.145728 20,20 0 0 0 -0.12815,-0.145211 20,20 0 0 0 -0.12971,-0.143145 20,20 0 0 0 -0.13074,-0.142626 20,20 0 0 0 -0.1323,-0.141076 20,20 0 0 0 -0.13384,-0.139528 20,20 0 0 0 -0.13487,-0.138491 20,20 0 0 0 -0.13643,-0.137459 20,20 0 0 0 -0.13797,-0.135911 20,20 0 0 0 -0.13901,-0.134358 20,20 0 0 0 -0.14005,-0.133323 20,20 0 0 0 -0.14159,-0.131776 20,20 0 0 0 -0.14314,-0.130225 20,20 0 0 0 -0.14366,-0.129191 20,20 0 0 0 -0.14573,-0.12764 20,20 0 0 0 -0.14625,-0.12609 20,20 0 0 0 -0.14779,-0.124542 20,20 0 0 0 -0.14935,-0.123505 20,20 0 0 0 -0.14986,-0.121957 20,20 0 0 0 -0.15141,-0.120407 20,20 0 0 0 -0.15245,-0.118856 20,20 0 0 0 -0.15399,-0.117822 20,20 0 0 0 -0.15451,-0.115755 20,20 0 0 0 -0.15607,-0.114723 20,20 0 0 0 -0.15709,-0.112654 20,20 0 0 0 -0.15813,-0.11162 20,20 0 0 0 -0.15916,-0.110072 20,20 0 0 0 -0.1602,-0.108519 20,20 0 0 0 -0.16123,-0.106455 20,20 0 0 0 -0.16227,-0.105418 20,20 0 0 0 -0.16329,-0.10387 20,20 0 0 0 -0.16433,-0.101804 20,20 0 0 0 -0.16537,-0.100769 20,20 0 0 0 -0.16588,-0.0987 20,20 0 0 0 -0.16743,-0.09767 20,20 0 0 0 -0.16795,-0.0956 20,20 0 0 0 -0.16898,-0.09405 20,20 0 0 0 -0.17002,-0.0925 20,20 0 0 0 -0.17105,-0.09043 20,20 0 0 0 -0.17156,-0.0894 20,20 0 0 0 -0.1726,-0.08733 20,20 0 0 0 -0.17312,-0.08578 20,20 0 0 0 -0.17415,-0.08423 20,20 0 0 0 -0.17518,-0.08217 20,20 0 0 0 -0.1757,-0.08062 20,20 0 0 0 -0.17673,-0.07906 20,20 0 0 0 -0.17725,-0.07751 20,20 0 0 0 -0.17829,-0.07545 20,20 0 0 0 -0.1788,-0.0739 20,20 0 0 0 -0.17931,-0.07183 20,20 0 0 0 -0.18036,-0.07028 20,20 0 0 0 -0.18086,-0.06873 20,20 0 0 0 -0.18139,-0.06718 20,20 0 0 0 -0.1819,-0.06511 20,20 0 0 0 -0.18293,-0.06305 20,20 0 0 0 -0.18345,-0.06149 20,20 0 0 0 -0.18397,-0.05994 20,20 0 0 0 -0.18449,-0.05788 20,20 0 0 0 -0.185,-0.05633 20,20 0 0 0 -0.18552,-0.05478 20,20 0 0 0 -0.18603,-0.05219 20,20 0 0 0 -0.18707,-0.05116 20,20 0 0 0 -0.18707,-0.04909 20,20 0 0 0 -0.18759,-0.04703 20,20 0 0 0 -0.18758,-0.04547 20,20 0 0 0 -0.18862,-0.04341 20,20 0 0 0 -0.18914,-0.04186 20,20 0 0 0 -0.18913,-0.03979 20,20 0 0 0 -0.18965,-0.03824 20,20 0 0 0 -0.19017,-0.03617 20,20 0 0 0 -0.19017,-0.03462 20,20 0 0 0 -0.19069,-0.03256 20,20 0 0 0 -0.19069,-0.03049 20,20 0 0 0 -0.19172,-0.02894 20,20 0 0 0 -0.1912,-0.02739 20,20 0 0 0 -0.19172,-0.02481 20,20 0 0 0 -0.19223,-0.02377 20,20 0 0 0 -0.19224,-0.02119 20,20 0 0 0 -0.19224,-0.01964 20,20 0 0 0 -0.19275,-0.01757 20,20 0 0 0 -0.19275,-0.01602 20,20 0 0 0 -0.19327,-0.01395 20,20 0 0 0 -0.19276,-0.0124 20,20 0 0 0 -0.19326,-0.01034 20,20 0 0 0 -0.19327,-0.0083 20,20 0 0 0 -0.19327,-0.0067 20,20 0 0 0 -0.19327,-0.0047 20,20 0 0 0 -0.19327,-0.0026 20,20 0 0 0 -0.19379,-0.001 V 6.158331 a 39.999999,39.999999 0 0 0 -5.2e-4,0 z M 46.009035,5.753188 a 39.999999,39.999999 0 0 1 0.201538,0.01085 39.999999,39.999999 0 0 0 -0.201538,-0.01085 z m 0.80822,0.04909 a 39.999999,39.999999 0 0 1 0.211873,0.0155 39.999999,39.999999 0 0 0 -0.211873,-0.0155 z" />
    <path
       id="rect309-5-3"
       style="fill:url(#meshgradient385);fill-opacity:1;stroke-width:0.264583"
       d="M 50.018761,59.999989 44,65.702479 v 19.99981 a 39.999999,39.999999 0 0 0 30.373341,-13.97227 39.999999,39.999999 0 0 1 -0.1571,0.12041 39.999999,39.999999 0 0 1 -0.21807,0.16484 39.999999,39.999999 0 0 1 -0.21962,0.1633 39.999999,39.999999 0 0 1 -0.22066,0.16175 39.999999,39.999999 0 0 1 -0.2217,0.16019 39.999999,39.999999 0 0 1 -0.22272,0.15865 39.999999,39.999999 0 0 1 -0.22376,0.1571 39.999999,39.999999 0 0 1 -0.22531,0.15554 39.999999,39.999999 0 0 1 -0.22583,0.154 39.999999,39.999999 0 0 1 -0.22685,0.15296 39.999999,39.999999 0 0 1 -0.22841,0.1509 39.999999,39.999999 0 0 1 -0.22893,0.14934 39.999999,39.999999 0 0 1 -0.23048,0.1478 39.999999,39.999999 0 0 1 -0.23099,0.14624 39.999999,39.999999 0 0 1 -0.23203,0.14469 39.999999,39.999999 0 0 1 -0.23306,0.14315 39.999999,39.999999 0 0 1 -0.23409,0.14159 39.999999,39.999999 0 0 1 -0.23513,0.14004 39.999999,39.999999 0 0 1 -0.23616,0.13798 39.999999,39.999999 0 0 1 -0.2372,0.13694 39.999999,39.999999 0 0 1 -0.23771,0.13488 39.999999,39.999999 0 0 1 -0.23874,0.13332 39.999999,39.999999 0 0 1 -0.23978,0.13178 39.999999,39.999999 0 0 1 -0.24081,0.13022 39.999999,39.999999 0 0 1 -0.24133,0.12868 39.999999,39.999999 0 0 1 -0.24237,0.12661 39.999999,39.999999 0 0 1 -0.24339,0.12557 39.999999,39.999999 0 0 1 -0.24392,0.1235 39.999999,39.999999 0 0 1 -0.24494,0.12145 39.999999,39.999999 0 0 1 -0.24598,0.1204 39.999999,39.999999 0 0 1 -0.2465,0.11834 39.999999,39.999999 0 0 1 -0.24701,0.11679 39.999999,39.999999 0 0 1 -0.24856,0.11524 39.999999,39.999999 0 0 1 -0.24857,0.11317 39.999999,39.999999 0 0 1 -0.25011,0.11214 39.999999,39.999999 0 0 1 -0.25012,0.10955 39.999999,39.999999 0 0 1 -0.25114,0.10852 39.999999,39.999999 0 0 1 -0.25218,0.10645 39.999999,39.999999 0 0 1 -0.2527,0.10491 39.999999,39.999999 0 0 1 -0.25322,0.10335 39.999999,39.999999 0 0 1 -0.25424,0.10129 39.999999,39.999999 0 0 1 -0.25477,0.0992 39.999999,39.999999 0 0 1 -0.25528,0.0982 39.999999,39.999999 0 0 1 -0.25632,0.0961 39.999999,39.999999 0 0 1 -0.25683,0.0941 39.999999,39.999999 0 0 1 -0.25735,0.093 39.999999,39.999999 0 0 1 -0.25786,0.0904 39.999999,39.999999 0 0 1 -0.2589,0.0894 39.999999,39.999999 0 0 1 -0.2589,0.0873 39.999999,39.999999 0 0 1 -0.25993,0.0853 39.999999,39.999999 0 0 1 -0.26045,0.0837 39.999999,39.999999 0 0 1 -0.26097,0.0822 39.999999,39.999999 0 0 1 -0.26148,0.0801 39.999999,39.999999 0 0 1 -0.26252,0.0786 39.999999,39.999999 0 0 1 -0.26251,0.0765 39.999999,39.999999 0 0 1 -0.26304,0.0749 39.999999,39.999999 0 0 1 -0.26355,0.0729 39.999999,39.999999 0 0 1 -0.26406,0.0713 39.999999,39.999999 0 0 1 -0.26459,0.0692 39.999999,39.999999 0 0 1 -0.2651,0.0677 39.999999,39.999999 0 0 1 -0.26561,0.0656 39.999999,39.999999 0 0 1 -0.26614,0.0641 39.999999,39.999999 0 0 1 -0.26613,0.062 39.999999,39.999999 0 0 1 -0.26717,0.0605 39.999999,39.999999 0 0 1 -0.26716,0.0584 39.999999,39.999999 0 0 1 -0.26769,0.0568 39.999999,39.999999 0 0 1 -0.26768,0.0548 39.999999,39.999999 0 0 1 -0.26872,0.0527 39.999999,39.999999 0 0 1 -0.26872,0.0512 39.999999,39.999999 0 0 1 -0.26923,0.0496 39.999999,39.999999 0 0 1 -0.26924,0.0475 39.999999,39.999999 0 0 1 -0.26975,0.0455 39.999999,39.999999 0 0 1 -0.26975,0.0439 39.999999,39.999999 0 0 1 -0.27027,0.0419 39.999999,39.999999 0 0 1 -0.27078,0.0398 39.999999,39.999999 0 0 1 -0.27078,0.0382 39.999999,39.999999 0 0 1 -0.2713,0.0367 39.999999,39.999999 0 0 1 -0.27131,0.0341 39.999999,39.999999 0 0 1 -0.27182,0.0331 39.999999,39.999999 0 0 1 -0.27181,0.0305 39.999999,39.999999 0 0 1 -0.27182,0.0289 39.999999,39.999999 0 0 1 -0.27233,0.0274 39.999999,39.999999 0 0 1 -0.27234,0.0248 39.999999,39.999999 0 0 1 -0.27234,0.0238 39.999999,39.999999 0 0 1 -0.27285,0.0212 39.999999,39.999999 0 0 1 -0.27285,0.0196 39.999999,39.999999 0 0 1 -0.27285,0.0181 39.999999,39.999999 0 0 1 -0.27337,0.0155 39.999999,39.999999 0 0 1 -0.27337,0.014 39.999999,39.999999 0 0 1 -0.27285,0.0124 39.999999,39.999999 0 0 1 -0.27336,0.0103 39.999999,39.999999 0 0 1 -0.27389,0.008 39.999999,39.999999 0 0 1 -0.27337,0.007 39.999999,39.999999 0 0 1 -0.27337,0.005 39.999999,39.999999 0 0 1 -0.27337,0.003 39.999999,39.999999 0 0 1 -0.27388,0.001 v -13.10411 h 5.3e-4 z" />
    <path
       id="path2934"
       style="fill:#000080;stroke-width:0.115563"
       d="M 40.000183,5.70225 A 40.000038,39.999999 0 0 0 0,45.702399 40.000038,39.999999 0 0 0 40.000183,85.702016 V 65.702206 A 20.000019,19.999999 0 0 1 19.999833,45.702399 20.000019,19.999999 0 0 1 40.000183,25.70207 Z" />
    <path
       id="path2934-8"
       style="fill:url(#meshgradient4361);fill-opacity:1;stroke-width:0.115563"
       d="M 46.019,79.999776 A 40.000038,39.999999 0 0 1 6.018827,39.999627 40.000038,39.999999 0 0 1 46.019,0 V 19.99982 A 20.00002,20 0 0 0 26.018657,39.999627 20.00002,20 0 0 0 46.019,59.999966 Z" />
    <path
       id="path2934-1"
       style="fill:url(#meshgradient6727);fill-opacity:1;stroke-width:0.115563"
       d="m 46.0188,19.99954 a 20.00002,20 0 0 0 -6.018764,0.9276 v -5.2e-4 a 20.00002,20 0 0 0 -0.0692,0.0222 20.00002,20 0 0 0 -0.007,0.002 20.00002,20 0 0 0 -0.0724,0.0232 20.00002,20 0 0 0 -0.108,0.0357 20.00002,20 0 0 0 -0.0754,0.0248 20.00002,20 0 0 0 -0.0739,0.0253 20.00002,20 0 0 0 -0.0682,0.0233 20.00002,20 0 0 0 -0.0408,0.014 20.00002,20 0 0 0 -5.2e-4,0 20.00002,20 0 0 0 -0.10697,0.0377 20.00002,20 0 0 0 -0.0755,0.0263 20.00002,20 0 0 0 -0.10697,0.0388 20.00002,20 0 0 0 -0.0749,0.0269 20.00002,20 0 0 0 -0.0987,0.0367 20.00002,20 0 0 0 -0.017,0.007 20.00002,20 0 0 0 -0.0656,0.0243 20.00002,20 0 0 0 -0.10594,0.0408 20.00002,20 0 0 0 -0.0744,0.0284 20.00002,20 0 0 0 -0.0837,0.0331 20.00002,20 0 0 0 -0.0439,0.0176 20.00002,20 0 0 0 -0.0522,0.0207 20.00002,20 0 0 0 -0.10542,0.0429 20.00002,20 0 0 0 -0.0739,0.03 20.00002,20 0 0 0 -0.104901,0.0439 20.00002,20 0 0 0 -0.0734,0.0305 20.00002,20 0 0 0 -0.10439,0.045 20.00002,20 0 0 0 -0.0734,0.0315 20.00002,20 0 0 0 -0.031,0.014 20.00002,20 0 0 0 -0.14572,0.0641 20.00002,20 0 0 0 -5.2e-4,0 20.00002,20 0 0 0 -0.0465,0.0212 20.00002,20 0 0 0 -0.0734,0.0331 20.00002,20 0 0 0 -0.0563,0.0253 20.00002,20 0 0 0 -0.17518,0.0811 20.00002,20 0 0 0 -0.10284,0.0491 20.00002,20 0 0 0 -0.0718,0.0341 20.00002,20 0 0 0 -0.102321,0.0501 20.00002,20 0 0 0 -0.0718,0.0346 20.00002,20 0 0 0 -0.17311,0.0863 20.00002,20 0 0 0 -0.10129,0.0522 20.00002,20 0 0 0 -0.0708,0.0362 20.00002,20 0 0 0 -0.0662,0.0346 20.00002,20 0 0 0 -0.0687,0.0362 20.00002,20 0 0 0 -0.0362,0.0191 20.00002,20 0 0 0 -0.0909,0.0486 20.00002,20 0 0 0 -0.0129,0.007 20.00002,20 0 0 0 -0.0667,0.0357 20.00002,20 0 0 0 -0.0997,0.0548 20.00002,20 0 0 0 -0.0698,0.0382 20.00002,20 0 0 0 -0.0992,0.0558 20.00002,20 0 0 0 -0.0698,0.0388 20.00002,20 0 0 0 -0.0858,0.0496 20.00002,20 0 0 0 -0.0382,0.0217 20.00002,20 0 0 0 -0.0434,0.0253 20.00002,20 0 0 0 -0.0687,0.0403 20.00002,20 0 0 0 -0.0377,0.0217 20.00002,20 0 0 0 -0.0605,0.0357 20.00002,20 0 0 0 -0.0977,0.0589 20.00002,20 0 0 0 -0.0682,0.0408 20.00002,20 0 0 0 -0.0646,0.0398 20.00002,20 0 0 0 -0.0646,0.0398 20.00002,20 0 0 0 -0.0357,0.0217 20.00002,20 0 0 0 -0.0574,0.0357 20.00002,20 0 0 0 -0.0636,0.0403 20.00002,20 0 0 0 -0.0429,0.0269 20.00002,20 0 0 0 -0.0687,0.0439 20.00002,20 0 0 0 -0.0548,0.0351 20.00002,20 0 0 0 -0.0393,0.0253 20.00002,20 0 0 0 -0.0646,0.0419 20.00002,20 0 0 0 -0.0703,0.046 20.00002,20 0 0 0 -0.0274,0.0176 20.00002,20 0 0 0 -0.16072,0.10749 20.00002,20 0 0 0 -0.15968,0.10903 20.00002,20 0 0 0 -0.15864,0.11059 20.00002,20 0 0 0 -0.15762,0.11214 20.00002,20 0 0 0 -0.156581,0.11369 20.00002,20 0 0 0 -0.15554,0.11522 20.00002,20 0 0 0 -0.15452,0.1168 20.00002,20 0 0 0 -0.15296,0.11783 20.00002,20 0 0 0 -0.15193,0.11989 20.00002,20 0 0 0 -0.15089,0.12092 20.00002,20 0 0 0 -0.14986,0.12247 20.00002,20 0 0 0 -0.148311,0.12402 20.00002,20 0 0 0 -0.14728,0.12506 20.00002,20 0 0 0 -0.14625,0.12712 20.00002,20 0 0 0 -0.14469,0.12816 20.00002,20 0 0 0 -0.14366,0.12971 20.00002,20 0 0 0 -0.14263,0.13074 20.00002,20 0 0 0 -0.14107,0.1323 20.00002,20 0 0 0 -0.139531,0.13383 20.00002,20 0 0 0 -0.13849,0.13488 20.00002,20 0 0 0 -0.13746,0.13642 20.00002,20 0 0 0 -0.13539,0.13798 20.00002,20 0 0 0 -0.13488,0.13901 20.00002,20 0 0 0 -0.13281,0.14005 20.00002,20 0 0 0 -0.13177,0.14159 20.00002,20 0 0 0 -0.130751,0.14314 20.00002,20 0 0 0 -0.12867,0.14418 20.00002,20 0 0 0 -0.12764,0.14521 20.00002,20 0 0 0 -0.12661,0.14676 20.00002,20 0 0 0 -0.12454,0.1478 20.00002,20 0 0 0 -0.1235,0.14882 20.00002,20 0 0 0 -0.12196,0.15038 20.00002,20 0 0 0 -0.12041,0.15142 20.00002,20 0 0 0 -0.11885,0.15244 20.00002,20 0 0 0 -0.117311,0.15348 20.00002,20 0 0 0 -0.11627,0.15503 20.00002,20 0 0 0 -0.11472,0.15555 20.00002,20 0 0 0 -0.11266,0.15708 20.00002,20 0 0 0 -0.11162,0.15813 20.00002,20 0 0 0 -0.0646,0.0935 20.000019,19.999999 0 0 1 10.44692,-2.94503 z" />
    <path
       id="path3022"
       style="fill:url(#meshgradient8433);fill-opacity:1;stroke-width:0.115563"
       d="M 15.647123,13.96996 C 5.782697,21.5404 -4.8999719e-5,33.26782 1.0002812e-6,45.702389 2.0100028e-4,67.793686 17.908861,85.702096 40.000185,85.702016 l 6.018755,-5.7025 a 40.000038,39.999999 0 0 1 -0.18604,0 40.000038,39.999999 0 0 1 -0.27336,-0.003 40.000038,39.999999 0 0 1 -0.27389,-0.004 40.000038,39.999999 0 0 1 -0.27337,-0.006 40.000038,39.999999 0 0 1 -0.27336,-0.008 40.000038,39.999999 0 0 1 -0.27337,-0.0103 40.000038,39.999999 0 0 1 -0.27337,-0.0114 40.000038,39.999999 0 0 1 -0.273371,-0.0134 40.000038,39.999999 0 0 1 -0.27285,-0.0155 40.000038,39.999999 0 0 1 -0.272851,-0.0171 40.000038,39.999999 0 0 1 -0.27337,-0.0191 40.000038,39.999999 0 0 1 -0.27234,-0.0207 40.000038,39.999999 0 0 1 -0.27285,-0.0227 40.000038,39.999999 0 0 1 -0.272331,-0.0248 40.000038,39.999999 0 0 1 -0.27234,-0.0264 40.000038,39.999999 0 0 1 -0.27233,-0.0284 40.000038,39.999999 0 0 1 -0.27182,-0.0305 40.000038,39.999999 0 0 1 -0.271301,-0.032 40.000038,39.999999 0 0 1 -0.27182,-0.0336 40.000038,39.999999 0 0 1 -0.2713,-0.0362 40.000038,39.999999 0 0 1 -0.270791,-0.0372 40.000038,39.999999 0 0 1 -0.27078,-0.0398 40.000038,39.999999 0 0 1 -0.094,-0.0145 40.000038,39.999999 0 0 1 -0.17622,-0.0269 40.000038,39.999999 0 0 1 -0.27027,-0.0429 40.000038,39.999999 0 0 1 -0.257351,-0.0434 c -0.0352,-0.008 2.535013,0.21087 3.072173,0.27078 0.0411,-0.0282 -3.527523,-0.3529 -3.611153,-0.36638 a 40.000038,39.999999 0 0 1 -0.0119,-0.002 40.000038,39.999999 0 0 1 -0.26924,-0.0501 40.000038,39.999999 0 0 1 -0.268201,-0.0527 40.000038,39.999999 0 0 1 -0.2682,-0.0543 40.000038,39.999999 0 0 1 -0.18293,-0.0382 v 10e-4 c -0.0283,-0.006 -0.0565,-0.012 -0.0847,-0.0181 -0.0893,-0.019 -0.17853,-0.0383 -0.26769,-0.0579 -0.089,-0.0195 -0.177831,-0.0393 -0.266651,-0.0594 -0.0889,-0.0202 -0.17783,-0.0407 -0.26665,-0.0615 -0.0888,-0.0209 -0.17749,-0.0421 -0.26613,-0.0636 -0.0886,-0.0214 -0.17716,-0.0431 -0.26562,-0.0651 -0.0884,-0.0221 -0.176811,-0.0445 -0.265101,-0.0672 -0.0885,-0.0226 -0.17681,-0.0455 -0.2651,-0.0687 -0.0881,-0.0233 -0.17612,-0.0469 -0.26406,-0.0708 -0.0881,-0.0238 -0.17613,-0.0479 -0.26407,-0.0724 -0.0878,-0.0243 -0.175441,-0.049 -0.263031,-0.0739 -0.0878,-0.0252 -0.175448,-0.0507 -0.263036,-0.0765 -0.08742,-0.0255 -0.174754,-0.0514 -0.262001,-0.0775 -0.08742,-0.0262 -0.174757,-0.0528 -0.261999,-0.0796 -0.08708,-0.0269 -0.174069,-0.0541 -0.260966,-0.0816 -0.08691,-0.0274 -0.173728,-0.0552 -0.260448,-0.0832 -0.08674,-0.0279 -0.173387,-0.0563 -0.259935,-0.0847 -0.08674,-0.0286 -0.173387,-0.0576 -0.259933,-0.0868 -0.08623,-0.0292 -0.172355,-0.0586 -0.258381,-0.0884 -0.08623,-0.0298 -0.17236,-0.06 -0.258382,-0.0904 -0.08606,-0.0304 -0.172016,-0.061 -0.257865,-0.092 -0.08572,-0.031 -0.17133,-0.0624 -0.256834,-0.094 -0.08555,-0.0316 -0.170984,-0.0634 -0.256315,-0.0956 -0.08537,-0.0321 -0.170646,-0.0644 -0.255798,-0.0971 -0.08504,-0.0328 -0.169955,-0.0658 -0.254765,-0.0992 -0.08487,-0.0333 -0.169613,-0.0669 -0.254249,-0.10077 -0.08469,-0.0338 -0.169271,-0.0679 -0.253731,-0.10232 -0.08435,-0.0345 -0.168584,-0.0693 -0.252698,-0.10439 -0.08418,-0.035 -0.168242,-0.0703 -0.252181,-0.10593 -0.08401,-0.0355 -0.167901,-0.0714 -0.251665,-0.10749 -0.08367,-0.0362 -0.167213,-0.0728 -0.250631,-0.10956 -0.0835,-0.0368 -0.166868,-0.0738 -0.250114,-0.1111 -0.08315,-0.0374 -0.166183,-0.0752 -0.24908,-0.11317 -0.08298,-0.0378 -0.165841,-0.0759 -0.248565,-0.11421 -0.08264,-0.0385 -0.165153,-0.0772 -0.24753,-0.11627 -0.08247,-0.0392 -0.164813,-0.0786 -0.247014,-0.11834 -0.08213,-0.0395 -0.164122,-0.0793 -0.245979,-0.11937 -0.08179,-0.0402 -0.163436,-0.0807 -0.244947,-0.12144 -0.08162,-0.0407 -0.163094,-0.0817 -0.24443,-0.12299 -0.08127,-0.0412 -0.162405,-0.0828 -0.243396,-0.12454 -0.0811,-0.0417 -0.162063,-0.0838 -0.242879,-0.12609 -0.08076,-0.0424 -0.161379,-0.0852 -0.241846,-0.12816 -0.08042,-0.043 -0.160691,-0.0862 -0.240813,-0.12971 -0.08008,-0.0435 -0.160002,-0.0872 -0.239779,-0.13125 -0.07991,-0.044 -0.15966,-0.0883 -0.239262,-0.13281 -0.07956,-0.0445 -0.158971,-0.0893 -0.238228,-0.13436 -0.07922,-0.0452 -0.158285,-0.0907 -0.237196,-0.13643 -0.07888,-0.0457 -0.157598,-0.0917 -0.236161,-0.13797 -0.0787,-0.0461 -0.157257,-0.0924 -0.235645,-0.13901 -0.07836,-0.0468 -0.156569,-0.0938 -0.234611,-0.14108 -0.07785,-0.0473 -0.155536,-0.0948 -0.233062,-0.14263 -0.07768,-0.0478 -0.155191,-0.0958 -0.232543,-0.14417 -0.07734,-0.0483 -0.154507,-0.0969 -0.231511,-0.14573 -0.07699,-0.0488 -0.153818,-0.0979 -0.230477,-0.14728 -0.07665,-0.0495 -0.153134,-0.0993 -0.229443,-0.14934 -0.07631,-0.0499 -0.152446,-0.1 -0.228411,-0.15038 -0.07596,-0.0504 -0.151759,-0.10103 -0.227376,-0.15193 -0.07563,-0.0509 -0.151068,-0.10206 -0.226343,-0.15348 -0.07528,-0.0516 -0.150383,-0.10345 -0.225309,-0.15555 -0.07493,-0.0519 -0.149698,-0.10413 -0.224277,-0.15657 -0.07459,-0.0525 -0.149009,-0.10517 -0.223242,-0.15814 -0.07425,-0.053 -0.148321,-0.1062 -0.222209,-0.15967 -0.07374,-0.0535 -0.147288,-0.10723 -0.220658,-0.16124 -0.07357,-0.054 -0.146947,-0.10827 -0.220142,-0.16278 -0.07305,-0.0545 -0.145916,-0.1093 -0.218592,-0.16433 -0.07271,-0.055 -0.145228,-0.11034 -0.217558,-0.16588 -0.07236,-0.0554 -0.144539,-0.11103 -0.216524,-0.16691 -0.07202,-0.0561 -0.143854,-0.11241 -0.215491,-0.16899 -0.07151,-0.0564 -0.142821,-0.1131 -0.21394,-0.17001 -0.07134,-0.0569 -0.14248,-0.11414 -0.213425,-0.17157 -0.07065,-0.0575 -0.141102,-0.11517 -0.211357,-0.17311 -0.07048,-0.058 -0.140758,-0.11621 -0.210839,-0.17467 -0.06996,-0.0585 -0.139728,-0.11724 -0.20929,-0.17622 -0.06962,-0.0589 -0.13904,-0.11793 -0.208256,-0.17725 -0.06928,-0.0594 -0.138353,-0.11896 -0.207223,-0.1788 -0.06876,-0.0599 -0.137321,-0.12 -0.205673,-0.18035 -0.06842,-0.0602 -0.136632,-0.12069 -0.204638,-0.18138 -0.0679,-0.0609 -0.135603,-0.12207 -0.203089,-0.18345 -0.06756,-0.0613 -0.134912,-0.12276 -0.202054,-0.18449 -0.06722,-0.0616 -0.134228,-0.12345 -0.201023,-0.18552 -0.0667,-0.0621 -0.133194,-0.12448 -0.199471,-0.18706 -0.06636,-0.0626 -0.132506,-0.12552 -0.198437,-0.18863 -0.06585,-0.0632 -0.131476,-0.12655 -0.196888,-0.19016 -0.06533,-0.0635 -0.130442,-0.12725 -0.195336,-0.19121 -0.06499,-0.0639 -0.129757,-0.12793 -0.194305,-0.19223 -0.06464,-0.0644 -0.129068,-0.12897 -0.19327,-0.19379 -0.06396,-0.0649 -0.12769,-0.13001 -0.191203,-0.19534 -0.06378,-0.0652 -0.127347,-0.1307 -0.190686,-0.19637 -0.0631,-0.0658 -0.125971,-0.13173 -0.188618,-0.19792 -0.06293,-0.0661 -0.125629,-0.13242 -0.188104,-0.19895 -0.06224,-0.0666 -0.124251,-0.13346 -0.186035,-0.20051 -0.0619,-0.067 -0.123566,-0.13414 -0.185002,-0.20153 -0.06138,-0.0675 -0.122532,-0.13518 -0.183451,-0.20309 -0.06087,-0.0678 -0.1215,-0.13588 -0.181901,-0.20412 -0.06053,-0.0683 -0.120812,-0.13691 -0.180867,-0.20568 -0.06001,-0.0685 -0.119782,-0.13726 -0.179319,-0.20619 -0.05949,-0.0692 -0.118748,-0.13863 -0.177766,-0.20825 -0.05898,-0.0694 -0.117716,-0.13898 -0.176217,-0.20877 -0.05863,-0.0699 -0.117029,-0.14002 -0.175183,-0.21033 -0.05812,-0.0703 -0.115996,-0.1407 -0.173633,-0.21135 -0.0576,-0.0708 -0.114965,-0.14174 -0.172083,-0.21291 -0.05709,-0.0709 -0.113932,-0.1421 -0.170533,-0.21342 -0.05674,-0.0715 -0.113244,-0.14313 -0.169498,-0.21498 -0.05606,-0.072 -0.111869,-0.14416 -0.167432,-0.21652 -0.05571,-0.0722 -0.111179,-0.1445 -0.166398,-0.21704 -0.0552,-0.0727 -0.110148,-0.14555 -0.164848,-0.21859 -0.05468,-0.0729 -0.109116,-0.14589 -0.163297,-0.21911 -0.05417,-0.0734 -0.108085,-0.14692 -0.161749,-0.22066 -0.05365,-0.0737 -0.10705,-0.14761 -0.160197,-0.22169 -0.05314,-0.0741 -0.106019,-0.14831 -0.158647,-0.22273 -0.05262,-0.0746 -0.104986,-0.14933 -0.157096,-0.22428 -0.0521,-0.0748 -0.103954,-0.14968 -0.155546,-0.22479 -0.05159,-0.0751 -0.102922,-0.15037 -0.153995,-0.22582 -0.05125,-0.0756 -0.102235,-0.15141 -0.152964,-0.22738 -0.05056,-0.0758 -0.100857,-0.15176 -0.150895,-0.22789 -0.05004,-0.0763 -0.09983,-0.1528 -0.149345,-0.22945 -0.04953,-0.0765 -0.09879,-0.15314 -0.147795,-0.22996 -0.04901,-0.0768 -0.09776,-0.15383 -0.146244,-0.23099 -0.0485,-0.0773 -0.09673,-0.15486 -0.144694,-0.23254 -0.04798,-0.0775 -0.0957,-0.15521 -0.143144,-0.23306 -0.04746,-0.0779 -0.09466,-0.15591 -0.141594,-0.2341 -0.04695,-0.0782 -0.09363,-0.15659 -0.140043,-0.23513 -0.04626,-0.0784 -0.09225,-0.15694 -0.137976,-0.23564 -0.04592,-0.0789 -0.09157,-0.15798 -0.136943,-0.23719 -0.04523,-0.0791 -0.09019,-0.15833 -0.134875,-0.23772 -0.04471,-0.0794 -0.08916,-0.15901 -0.133322,-0.23874 -0.0442,-0.0798 -0.0881,-0.1597 -0.13178,-0.23978 -0.0437,-0.0801 -0.0871,-0.16039 -0.13022,-0.24081 -0.0432,-0.0803 -0.0861,-0.16074 -0.128681,-0.24133 -0.0425,-0.0806 -0.0847,-0.16144 -0.1266,-0.24236 -0.0421,-0.081 -0.084,-0.16212 -0.12558,-0.2434 -0.0414,-0.0812 -0.0826,-0.16247 -0.1235,-0.24391 -0.0409,-0.0815 -0.0816,-0.16316 -0.12196,-0.24495 -0.0402,-0.0819 -0.0802,-0.16385 -0.11989,-0.24598 -0.0397,-0.082 -0.0792,-0.1642 -0.11834,-0.2465 -0.0392,-0.0824 -0.0781,-0.16489 -0.11679,-0.24753 -0.0387,-0.0825 -0.0771,-0.16523 -0.11524,-0.24804 -0.0382,-0.0829 -0.0761,-0.16592 -0.11368,-0.24908 -0.0375,-0.0831 -0.0747,-0.16627 -0.11163,-0.2496 -0.037,-0.0834 -0.0737,-0.16696 -0.110071,-0.25063 -0.0363,-0.0836 -0.0723,-0.16731 -0.108,-0.25115 -0.0358,-0.0838 -0.0713,-0.16765 -0.10645,-0.25166 -0.0352,-0.0841 -0.0702,-0.16835 -0.10491,-0.2527 -0.0347,-0.0845 -0.0692,-0.16904 -0.10335,-0.25373 -0.034,-0.0845 -0.0678,-0.16904 -0.10129,-0.25373 -0.0335,-0.0848 -0.0668,-0.16973 -0.0997,-0.25477 -0.0328,-0.0851 -0.0654,-0.17042 -0.0977,-0.2558 -0.0323,-0.0851 -0.0644,-0.170417 -0.0961,-0.255787 -0.0318,-0.0855 -0.0633,-0.17112 -0.0946,-0.25684 -0.0311,-0.0857 -0.062,-0.17146 -0.0925,-0.25734 -0.0306,-0.086 -0.0609,-0.17216 -0.091,-0.25839 -0.0299,-0.086 -0.0595,-0.17215 -0.0889,-0.25838 -0.0294,-0.0864 -0.0585,-0.17284 -0.0873,-0.25941 -0.0289,-0.0866 -0.0575,-0.1732 -0.0858,-0.25994 -0.0282,-0.0867 -0.0561,-0.17354 -0.0837,-0.26045 -0.0275,-0.0869 -0.0547,-0.17388 -0.0816,-0.26096 -0.027,-0.0871 -0.0537,-0.17424 -0.0801,-0.26149 -0.0265,-0.0872 -0.0527,-0.17458 -0.0785,-0.26199 -0.0258,-0.0874 -0.0513,-0.17493 -0.0765,-0.26252 -0.0253,-0.0876 -0.0503,-0.17527 -0.0749,-0.26303 -0.0246,-0.0878 -0.0489,-0.17562 -0.0729,-0.26355 -0.0241,-0.0881 -0.0478,-0.17631 -0.0713,-0.26459 -0.0234,-0.0881 -0.0465,-0.17631 -0.0693,-0.26458 -0.0229,-0.0883 -0.0454,-0.17666 -0.0677,-0.2651 -0.0224,-0.0883 -0.0444,-0.17666 -0.0662,-0.2651 -0.0215,-0.0886 -0.0427,-0.17736 -0.0636,-0.26613 -0.0212,-0.0888 -0.042,-0.17771 -0.0625,-0.26665 -0.0203,-0.0888 -0.0403,-0.17771 -0.0599,-0.26666 -0.0198,-0.089 -0.0392,-0.17804 -0.0584,-0.26716 -0.0192,-0.0892 -0.0382,-0.1784 -0.0568,-0.26769 -0.0186,-0.0893 -0.0368,-0.17874 -0.0548,-0.2682 -0.0181,-0.0893 -0.0358,-0.17874 -0.0532,-0.2682 -0.0174,-0.0895 -0.0344,-0.17909 -0.0512,-0.26872 -0.0167,-0.0897 -0.033,-0.17943 -0.0491,-0.26923 -0.0162,-0.0897 -0.032,-0.17943 -0.0475,-0.26924 -0.0155,-0.0899 -0.0306,-0.17978 -0.0455,-0.26975 -0.0149,-0.09 -0.0296,-0.18013 -0.0439,-0.27027 -0.0143,-0.09 -0.0282,-0.18012 -0.0419,-0.27027 -0.0137,-0.09 -0.0272,-0.18012 -0.0403,-0.27026 -0.0131,-0.0904 -0.0258,-0.18082 -0.0382,-0.2713 -0.0124,-0.0902 -0.0244,-0.18049 -0.0362,-0.27079 -0.0118,-0.0904 -0.0234,-0.18082 -0.0346,-0.2713 -0.0112,-0.0906 -0.022,-0.18118 -0.0326,-0.271816 -0.0106,-0.0906 -0.021,-0.181179 -0.031,-0.27182 -0.01,-0.0906 -0.0196,-0.181176 -0.0289,-0.271817 -0.009,-0.0907 -0.0182,-0.181525 -0.0269,-0.272335 -0.009,-0.0907 -0.0172,-0.181526 -0.0253,-0.272333 -0.008,-0.0909 -0.0158,-0.181872 -0.0232,-0.272852 -0.008,-0.0907 -0.0148,-0.181536 -0.0217,-0.272335 -0.007,-0.0909 -0.0134,-0.181883 -0.0196,-0.272852 -0.006,-0.0911 -0.012,-0.182229 -0.0176,-0.273367 -0.006,-0.0909 -0.011,-0.181883 -0.016,-0.272852 -0.005,-0.0911 -0.01,-0.182229 -0.0139,-0.27337 -0.004,-0.0911 -0.008,-0.182237 -0.0119,-0.273368 -0.004,-0.0911 -0.007,-0.182239 -0.0103,-0.273367 -0.003,-0.0911 -0.006,-0.18224 -0.009,-0.27337 -0.002,-0.0911 -0.004,-0.182237 -0.006,-0.273368 -0.002,-0.0911 -0.003,-0.182237 -0.005,-0.273367 -0.001,-0.0913 -0.002,-0.182587 -0.003,-0.273886 -6.4e-4,-0.0911 -0.001,-0.182248 -0.001,-0.273368 3e-5,-0.0622 2e-4,-0.124373 5.2e-4,-0.186552 5.6e-4,-0.0913 0.001,-0.182595 0.003,-0.273886 8.9e-4,-0.0911 0.002,-0.182248 0.004,-0.273368 0.002,-0.0911 0.004,-0.182258 0.006,-0.273367 0.002,-0.0911 0.005,-0.182259 0.008,-0.273371 0.003,-0.0911 0.006,-0.182258 0.01,-0.273367 0.004,-0.0911 0.007,-0.182258 0.0114,-0.273368 0.004,-0.0911 0.009,-0.182258 0.0134,-0.273367 0.005,-0.0911 0.01,-0.18227 0.0155,-0.27337 0.005,-0.091 0.0111,-0.18192 0.017,-0.27285 0.006,-0.091 0.0124,-0.18192 0.0191,-0.27285 0.007,-0.091 0.0135,-0.18193 0.0207,-0.27286 0.007,-0.0908 0.0149,-0.18158 0.0227,-0.27233 0.008,-0.091 0.0162,-0.18193 0.0248,-0.27285 0.008,-0.0908 0.0173,-0.18159 0.0264,-0.27234 0.009,-0.0906 0.0186,-0.18124 0.0284,-0.27182 0.01,-0.0906 0.02,-0.18124 0.0305,-0.27181 0.0104,-0.0906 0.0211,-0.18125 0.032,-0.27182 0.0109,-0.0905 0.0221,-0.1809 0.0336,-0.2713 0.0117,-0.0905 0.0238,-0.18091 0.0362,-0.2713 0.0121,-0.0903 0.0245,-0.18057 0.0372,-0.27079 0.013,-0.0903 0.0262,-0.18056 0.0398,-0.27078 0.0135,-0.0901 0.0273,-0.18023 0.0413,-0.27027 0.014,-0.0901 0.0283,-0.18023 0.0429,-0.27027 0.0148,-0.09 0.03,-0.17989 0.0455,-0.26975 0.0152,-0.09 0.0307,-0.17989 0.0465,-0.26975 0.0161,-0.0898 0.0324,-0.17954 0.0491,-0.26923 0.0164,-0.0896 0.0331,-0.17921 0.0501,-0.26872 0.0173,-0.0896 0.0348,-0.17921 0.0527,-0.26872 0.0178,-0.0893 0.0359,-0.17851 0.0543,-0.26768 0.0183,-0.0895 0.0369,-0.17886 0.0558,-0.2682 0.019,-0.0891 0.0383,-0.17818 0.0579,-0.26717 0.0197,-0.0891 0.0397,-0.17818 0.0599,-0.26717 0.0202,-0.0888 0.0407,-0.17749 0.0615,-0.26613 0.0209,-0.0888 0.0421,-0.17749 0.0636,-0.26613 0.0214,-0.0886 0.0431,-0.17716 0.0651,-0.26562 0.0219,-0.0886 0.0441,-0.17716 0.0667,-0.26562 0.0228,-0.0883 0.0459,-0.17646 0.0692,-0.26458 0.0231,-0.0881 0.0466,-0.17613 0.0703,-0.26407 0.0238,-0.0881 0.0479,-0.17612 0.0724,-0.26407 0.0245,-0.0878 0.0493,-0.17544 0.0744,-0.26303 0.025,-0.0878 0.0503,-0.17544 0.076,-0.26303 0.0257,-0.0874 0.0517,-0.17476 0.078,-0.262 0.0262,-0.0874 0.0528,-0.17476 0.0796,-0.262 0.0267,-0.0871 0.0538,-0.17406 0.0811,-0.26096 0.0274,-0.0871 0.0552,-0.17408 0.0832,-0.26097 0.0281,-0.0867 0.0566,-0.17339 0.0853,-0.25993 0.0286,-0.0866 0.0576,-0.17305 0.0868,-0.25942 0.0292,-0.0864 0.0586,-0.1727 0.0884,-0.2589 0.0299,-0.0861 0.06,-0.17202 0.0904,-0.25786 0.0304,-0.0861 0.061,-0.17202 0.092,-0.25787 0.0309,-0.0857 0.0621,-0.17132 0.0935,-0.25683 0.0316,-0.0855 0.0634,-0.17099 0.0956,-0.25632 0.0323,-0.0854 0.0648,-0.17064 0.0977,-0.2558 0.0326,-0.085 0.0655,-0.16995 0.0987,-0.25476 0.0333,-0.085 0.0669,-0.16996 0.10077,-0.25476 0.034,-0.0845 0.0683,-0.16893 0.10284,-0.25322 0.0345,-0.0845 0.0693,-0.16892 0.10438,-0.25321 0.035,-0.0842 0.0703,-0.16824 0.10594,-0.25219 0.0355,-0.0838 0.0714,-0.16755 0.10749,-0.25114 0.0362,-0.0837 0.0727,-0.16721 0.109551,-0.25063 0.0367,-0.0835 0.0738,-0.16688 0.1111,-0.25012 0.0373,-0.0832 0.0748,-0.16618 0.11266,-0.24908 0.038,-0.083 0.0762,-0.16584 0.11472,-0.24856 0.0385,-0.0827 0.0772,-0.16515 0.11627,-0.24753 0.039,-0.0825 0.0783,-0.16482 0.11783,-0.24701 0.0397,-0.0821 0.0797,-0.16412 0.11988,-0.24598 0.0402,-0.082 0.0807,-0.16379 0.12144,-0.24547 0.0407,-0.0814 0.0817,-0.16275 0.12299,-0.24391 0.0412,-0.0814 0.0828,-0.16275 0.12454,-0.24391 0.0418,-0.0809 0.0838,-0.16172 0.12609,-0.24236 0.0424,-0.0808 0.0852,-0.16138 0.12816,-0.24185 0.043,-0.0804 0.0862,-0.16069 0.129711,-0.24081 0.0435,-0.0802 0.0872,-0.16035 0.13126,-0.2403 0.044,-0.0797 0.0883,-0.15931 0.13281,-0.23874 0.04451,-0.0796 0.0893,-0.15898 0.134355,-0.23823 0.0452,-0.0792 0.09068,-0.15829 0.136426,-0.2372 0.04555,-0.079 0.09137,-0.15793 0.137459,-0.23667 0.04624,-0.0785 0.09275,-0.15691 0.139527,-0.23513 0.04676,-0.0784 0.09379,-0.15657 0.141077,-0.23461 0.04728,-0.078 0.09482,-0.15589 0.142627,-0.23358 0.04779,-0.0775 0.09585,-0.15485 0.144178,-0.23203 0.04831,-0.0773 0.09689,-0.15451 0.145727,-0.23151 0.04883,-0.077 0.09792,-0.15381 0.147278,-0.23047 0.04952,-0.0767 0.0993,-0.15314 0.149345,-0.22945 0.04987,-0.0763 0.09999,-0.15244 0.150378,-0.22841 0.05038,-0.076 0.101028,-0.15176 0.15193,-0.22738 0.0509,-0.0758 0.10206,-0.15141 0.153479,-0.22685 0.05159,-0.0751 0.103441,-0.15004 0.155546,-0.2248 0.05194,-0.0749 0.104131,-0.14969 0.156579,-0.22427 0.05245,-0.0746 0.105166,-0.14901 0.15813,-0.22324 0.05297,-0.0743 0.106199,-0.14833 0.15968,-0.22221 0.05349,-0.0739 0.107236,-0.14764 0.161231,-0.22118 0.05401,-0.0734 0.108271,-0.1466 0.162782,-0.21962 0.05453,-0.0731 0.109305,-0.14592 0.164331,-0.2186 0.05505,-0.0727 0.110339,-0.14522 0.165881,-0.21755 0.05539,-0.0724 0.11103,-0.14454 0.166915,-0.21653 0.05608,-0.072 0.112409,-0.14385 0.168982,-0.21549 0.05643,-0.0717 0.113099,-0.14316 0.170015,-0.21445 0.05694,-0.0712 0.114137,-0.14214 0.171567,-0.21291 0.05746,-0.0708 0.115169,-0.14145 0.173116,-0.21188 0.05798,-0.0703 0.116205,-0.14041 0.174667,-0.21032 0.0585,-0.0701 0.117238,-0.14007 0.176216,-0.2098 0.0544,-0.0643 0.109007,-0.12834 0.163815,-0.19224 z m 26.736894,65.732936 c -0.008,0.005 -0.21105,-0.006 -0.51366,-0.0253 0.33229,0.0212 0.674431,0.0433 0.51366,0.0253 z m -0.51366,-0.0253 c -0.34415,-0.022 -0.707891,-0.0455 -1.854672,-0.13229 0.952811,0.0721 1.486732,0.10899 1.854672,0.13229 z" />
  </g>
  <script
     id="mesh_polyfill"
     type="text/javascript">
!function(){const t=&quot;http://www.w3.org/2000/svg&quot;,e=&quot;http://www.w3.org/1999/xlink&quot;,s=&quot;http://www.w3.org/1999/xhtml&quot;,r=2;if(document.createElementNS(t,&quot;meshgradient&quot;).x)return;const n=(t,e,s,r)=&gt;{let n=new x(.5*(e.x+s.x),.5*(e.y+s.y)),o=new x(.5*(t.x+e.x),.5*(t.y+e.y)),i=new x(.5*(s.x+r.x),.5*(s.y+r.y)),a=new x(.5*(n.x+o.x),.5*(n.y+o.y)),h=new x(.5*(n.x+i.x),.5*(n.y+i.y)),l=new x(.5*(a.x+h.x),.5*(a.y+h.y));return[[t,o,a,l],[l,h,i,r]]},o=t=&gt;{let e=t[0].distSquared(t[1]),s=t[2].distSquared(t[3]),r=.25*t[0].distSquared(t[2]),n=.25*t[1].distSquared(t[3]),o=e&gt;s?e:s,i=r&gt;n?r:n;return 18*(o&gt;i?o:i)},i=(t,e)=&gt;Math.sqrt(t.distSquared(e)),a=(t,e)=&gt;t.scale(2/3).add(e.scale(1/3)),h=t=&gt;{let e,s,r,n,o,i,a,h=new g;return t.match(/(\w+\(\s*[^)]+\))+/g).forEach(t=&gt;{let l=t.match(/[\w.-]+/g),d=l.shift();switch(d){case&quot;translate&quot;:2===l.length?e=new g(1,0,0,1,l[0],l[1]):(console.error(&quot;mesh.js: translate does not have 2 arguments!&quot;),e=new g(1,0,0,1,0,0)),h=h.append(e);break;case&quot;scale&quot;:1===l.length?s=new g(l[0],0,0,l[0],0,0):2===l.length?s=new g(l[0],0,0,l[1],0,0):(console.error(&quot;mesh.js: scale does not have 1 or 2 arguments!&quot;),s=new g(1,0,0,1,0,0)),h=h.append(s);break;case&quot;rotate&quot;:if(3===l.length&amp;&amp;(e=new g(1,0,0,1,l[1],l[2]),h=h.append(e)),l[0]){r=l[0]*Math.PI/180;let t=Math.cos(r),e=Math.sin(r);Math.abs(t)&lt;1e-16&amp;&amp;(t=0),Math.abs(e)&lt;1e-16&amp;&amp;(e=0),a=new g(t,e,-e,t,0,0),h=h.append(a)}else console.error(&quot;math.js: No argument to rotate transform!&quot;);3===l.length&amp;&amp;(e=new g(1,0,0,1,-l[1],-l[2]),h=h.append(e));break;case&quot;skewX&quot;:l[0]?(r=l[0]*Math.PI/180,n=Math.tan(r),o=new g(1,0,n,1,0,0),h=h.append(o)):console.error(&quot;math.js: No argument to skewX transform!&quot;);break;case&quot;skewY&quot;:l[0]?(r=l[0]*Math.PI/180,n=Math.tan(r),i=new g(1,n,0,1,0,0),h=h.append(i)):console.error(&quot;math.js: No argument to skewY transform!&quot;);break;case&quot;matrix&quot;:6===l.length?h=h.append(new g(...l)):console.error(&quot;math.js: Incorrect number of arguments for matrix!&quot;);break;default:console.error(&quot;mesh.js: Unhandled transform type: &quot;+d)}}),h},l=t=&gt;{let e=[],s=t.split(/[ ,]+/);for(let t=0,r=s.length-1;t&lt;r;t+=2)e.push(new x(parseFloat(s[t]),parseFloat(s[t+1])));return e},d=(t,e)=&gt;{for(let s in e)t.setAttribute(s,e[s])},c=(t,e,s,r,n)=&gt;{let o,i,a=[0,0,0,0];for(let h=0;h&lt;3;++h)e[h]&lt;t[h]&amp;&amp;e[h]&lt;s[h]||t[h]&lt;e[h]&amp;&amp;s[h]&lt;e[h]?a[h]=0:(a[h]=.5*((e[h]-t[h])/r+(s[h]-e[h])/n),o=Math.abs(3*(e[h]-t[h])/r),i=Math.abs(3*(s[h]-e[h])/n),a[h]&gt;o?a[h]=o:a[h]&gt;i&amp;&amp;(a[h]=i));return a},u=[[1,0,0,0,0,0,0,0,0,0,0,0,0,0,0,0],[0,0,0,0,1,0,0,0,0,0,0,0,0,0,0,0],[-3,3,0,0,-2,-1,0,0,0,0,0,0,0,0,0,0],[2,-2,0,0,1,1,0,0,0,0,0,0,0,0,0,0],[0,0,0,0,0,0,0,0,1,0,0,0,0,0,0,0],[0,0,0,0,0,0,0,0,0,0,0,0,1,0,0,0],[0,0,0,0,0,0,0,0,-3,3,0,0,-2,-1,0,0],[0,0,0,0,0,0,0,0,2,-2,0,0,1,1,0,0],[-3,0,3,0,0,0,0,0,-2,0,-1,0,0,0,0,0],[0,0,0,0,-3,0,3,0,0,0,0,0,-2,0,-1,0],[9,-9,-9,9,6,3,-6,-3,6,-6,3,-3,4,2,2,1],[-6,6,6,-6,-3,-3,3,3,-4,4,-2,2,-2,-2,-1,-1],[2,0,-2,0,0,0,0,0,1,0,1,0,0,0,0,0],[0,0,0,0,2,0,-2,0,0,0,0,0,1,0,1,0],[-6,6,6,-6,-4,-2,4,2,-3,3,-3,3,-2,-1,-2,-1],[4,-4,-4,4,2,2,-2,-2,2,-2,2,-2,1,1,1,1]],f=t=&gt;{let e=[];for(let s=0;s&lt;16;++s){e[s]=0;for(let r=0;r&lt;16;++r)e[s]+=u[s][r]*t[r]}return e},p=(t,e,s)=&gt;{const r=e*e,n=s*s,o=e*e*e,i=s*s*s;return t[0]+t[1]*e+t[2]*r+t[3]*o+t[4]*s+t[5]*s*e+t[6]*s*r+t[7]*s*o+t[8]*n+t[9]*n*e+t[10]*n*r+t[11]*n*o+t[12]*i+t[13]*i*e+t[14]*i*r+t[15]*i*o},y=t=&gt;{let e=[],s=[],r=[];for(let s=0;s&lt;4;++s)e[s]=[],e[s][0]=n(t[0][s],t[1][s],t[2][s],t[3][s]),e[s][1]=[],e[s][1].push(...n(...e[s][0][0])),e[s][1].push(...n(...e[s][0][1])),e[s][2]=[],e[s][2].push(...n(...e[s][1][0])),e[s][2].push(...n(...e[s][1][1])),e[s][2].push(...n(...e[s][1][2])),e[s][2].push(...n(...e[s][1][3]));for(let t=0;t&lt;8;++t){s[t]=[];for(let r=0;r&lt;4;++r)s[t][r]=[],s[t][r][0]=n(e[0][2][t][r],e[1][2][t][r],e[2][2][t][r],e[3][2][t][r]),s[t][r][1]=[],s[t][r][1].push(...n(...s[t][r][0][0])),s[t][r][1].push(...n(...s[t][r][0][1])),s[t][r][2]=[],s[t][r][2].push(...n(...s[t][r][1][0])),s[t][r][2].push(...n(...s[t][r][1][1])),s[t][r][2].push(...n(...s[t][r][1][2])),s[t][r][2].push(...n(...s[t][r][1][3]))}for(let t=0;t&lt;8;++t){r[t]=[];for(let e=0;e&lt;8;++e)r[t][e]=[],r[t][e][0]=s[t][0][2][e],r[t][e][1]=s[t][1][2][e],r[t][e][2]=s[t][2][2][e],r[t][e][3]=s[t][3][2][e]}return r};class x{constructor(t,e){this.x=t||0,this.y=e||0}toString(){return`(x=${this.x}, y=${this.y})`}clone(){return new x(this.x,this.y)}add(t){return new x(this.x+t.x,this.y+t.y)}scale(t){return void 0===t.x?new x(this.x*t,this.y*t):new x(this.x*t.x,this.y*t.y)}distSquared(t){let e=this.x-t.x,s=this.y-t.y;return e*e+s*s}transform(t){let e=this.x*t.a+this.y*t.c+t.e,s=this.x*t.b+this.y*t.d+t.f;return new x(e,s)}}class g{constructor(t,e,s,r,n,o){void 0===t?(this.a=1,this.b=0,this.c=0,this.d=1,this.e=0,this.f=0):(this.a=t,this.b=e,this.c=s,this.d=r,this.e=n,this.f=o)}toString(){return`affine: ${this.a} ${this.c} ${this.e} \n       ${this.b} ${this.d} ${this.f}`}append(t){t instanceof g||console.error(&quot;mesh.js: argument to Affine.append is not affine!&quot;);let e=this.a*t.a+this.c*t.b,s=this.b*t.a+this.d*t.b,r=this.a*t.c+this.c*t.d,n=this.b*t.c+this.d*t.d,o=this.a*t.e+this.c*t.f+this.e,i=this.b*t.e+this.d*t.f+this.f;return new g(e,s,r,n,o,i)}}class w{constructor(t,e){this.nodes=t,this.colors=e}paintCurve(t,e){if(o(this.nodes)&gt;r){const s=n(...this.nodes);let r=[[],[]],o=[[],[]];for(let t=0;t&lt;4;++t)r[0][t]=this.colors[0][t],r[1][t]=(this.colors[0][t]+this.colors[1][t])/2,o[0][t]=r[1][t],o[1][t]=this.colors[1][t];let i=new w(s[0],r),a=new w(s[1],o);i.paintCurve(t,e),a.paintCurve(t,e)}else{let s=Math.round(this.nodes[0].x);if(s&gt;=0&amp;&amp;s&lt;e){let r=4*(~~this.nodes[0].y*e+s);t[r]=Math.round(this.colors[0][0]),t[r+1]=Math.round(this.colors[0][1]),t[r+2]=Math.round(this.colors[0][2]),t[r+3]=Math.round(this.colors[0][3])}}}}class m{constructor(t,e){this.nodes=t,this.colors=e}split(){let t=[[],[],[],[]],e=[[],[],[],[]],s=[[[],[]],[[],[]]],r=[[[],[]],[[],[]]];for(let s=0;s&lt;4;++s){const r=n(this.nodes[0][s],this.nodes[1][s],this.nodes[2][s],this.nodes[3][s]);t[0][s]=r[0][0],t[1][s]=r[0][1],t[2][s]=r[0][2],t[3][s]=r[0][3],e[0][s]=r[1][0],e[1][s]=r[1][1],e[2][s]=r[1][2],e[3][s]=r[1][3]}for(let t=0;t&lt;4;++t)s[0][0][t]=this.colors[0][0][t],s[0][1][t]=this.colors[0][1][t],s[1][0][t]=(this.colors[0][0][t]+this.colors[1][0][t])/2,s[1][1][t]=(this.colors[0][1][t]+this.colors[1][1][t])/2,r[0][0][t]=s[1][0][t],r[0][1][t]=s[1][1][t],r[1][0][t]=this.colors[1][0][t],r[1][1][t]=this.colors[1][1][t];return[new m(t,s),new m(e,r)]}paint(t,e){let s,n=!1;for(let t=0;t&lt;4;++t)if((s=o([this.nodes[0][t],this.nodes[1][t],this.nodes[2][t],this.nodes[3][t]]))&gt;r){n=!0;break}if(n){let s=this.split();s[0].paint(t,e),s[1].paint(t,e)}else{new w([...this.nodes[0]],[...this.colors[0]]).paintCurve(t,e)}}}class b{constructor(t){this.readMesh(t),this.type=t.getAttribute(&quot;type&quot;)||&quot;bilinear&quot;}readMesh(t){let e=[[]],s=[[]],r=Number(t.getAttribute(&quot;x&quot;)),n=Number(t.getAttribute(&quot;y&quot;));e[0][0]=new x(r,n);let o=t.children;for(let t=0,r=o.length;t&lt;r;++t){e[3*t+1]=[],e[3*t+2]=[],e[3*t+3]=[],s[t+1]=[];let r=o[t].children;for(let n=0,o=r.length;n&lt;o;++n){let o=r[n].children;for(let r=0,i=o.length;r&lt;i;++r){let i=r;0!==t&amp;&amp;++i;let h,d=o[r].getAttribute(&quot;path&quot;),c=&quot;l&quot;;null!=d&amp;&amp;(c=(h=d.match(/\s*([lLcC])\s*(.*)/))[1]);let u=l(h[2]);switch(c){case&quot;l&quot;:0===i?(e[3*t][3*n+3]=u[0].add(e[3*t][3*n]),e[3*t][3*n+1]=a(e[3*t][3*n],e[3*t][3*n+3]),e[3*t][3*n+2]=a(e[3*t][3*n+3],e[3*t][3*n])):1===i?(e[3*t+3][3*n+3]=u[0].add(e[3*t][3*n+3]),e[3*t+1][3*n+3]=a(e[3*t][3*n+3],e[3*t+3][3*n+3]),e[3*t+2][3*n+3]=a(e[3*t+3][3*n+3],e[3*t][3*n+3])):2===i?(0===n&amp;&amp;(e[3*t+3][3*n+0]=u[0].add(e[3*t+3][3*n+3])),e[3*t+3][3*n+1]=a(e[3*t+3][3*n],e[3*t+3][3*n+3]),e[3*t+3][3*n+2]=a(e[3*t+3][3*n+3],e[3*t+3][3*n])):(e[3*t+1][3*n]=a(e[3*t][3*n],e[3*t+3][3*n]),e[3*t+2][3*n]=a(e[3*t+3][3*n],e[3*t][3*n]));break;case&quot;L&quot;:0===i?(e[3*t][3*n+3]=u[0],e[3*t][3*n+1]=a(e[3*t][3*n],e[3*t][3*n+3]),e[3*t][3*n+2]=a(e[3*t][3*n+3],e[3*t][3*n])):1===i?(e[3*t+3][3*n+3]=u[0],e[3*t+1][3*n+3]=a(e[3*t][3*n+3],e[3*t+3][3*n+3]),e[3*t+2][3*n+3]=a(e[3*t+3][3*n+3],e[3*t][3*n+3])):2===i?(0===n&amp;&amp;(e[3*t+3][3*n+0]=u[0]),e[3*t+3][3*n+1]=a(e[3*t+3][3*n],e[3*t+3][3*n+3]),e[3*t+3][3*n+2]=a(e[3*t+3][3*n+3],e[3*t+3][3*n])):(e[3*t+1][3*n]=a(e[3*t][3*n],e[3*t+3][3*n]),e[3*t+2][3*n]=a(e[3*t+3][3*n],e[3*t][3*n]));break;case&quot;c&quot;:0===i?(e[3*t][3*n+1]=u[0].add(e[3*t][3*n]),e[3*t][3*n+2]=u[1].add(e[3*t][3*n]),e[3*t][3*n+3]=u[2].add(e[3*t][3*n])):1===i?(e[3*t+1][3*n+3]=u[0].add(e[3*t][3*n+3]),e[3*t+2][3*n+3]=u[1].add(e[3*t][3*n+3]),e[3*t+3][3*n+3]=u[2].add(e[3*t][3*n+3])):2===i?(e[3*t+3][3*n+2]=u[0].add(e[3*t+3][3*n+3]),e[3*t+3][3*n+1]=u[1].add(e[3*t+3][3*n+3]),0===n&amp;&amp;(e[3*t+3][3*n+0]=u[2].add(e[3*t+3][3*n+3]))):(e[3*t+2][3*n]=u[0].add(e[3*t+3][3*n]),e[3*t+1][3*n]=u[1].add(e[3*t+3][3*n]));break;case&quot;C&quot;:0===i?(e[3*t][3*n+1]=u[0],e[3*t][3*n+2]=u[1],e[3*t][3*n+3]=u[2]):1===i?(e[3*t+1][3*n+3]=u[0],e[3*t+2][3*n+3]=u[1],e[3*t+3][3*n+3]=u[2]):2===i?(e[3*t+3][3*n+2]=u[0],e[3*t+3][3*n+1]=u[1],0===n&amp;&amp;(e[3*t+3][3*n+0]=u[2])):(e[3*t+2][3*n]=u[0],e[3*t+1][3*n]=u[1]);break;default:console.error(&quot;mesh.js: &quot;+c+&quot; invalid path type.&quot;)}if(0===t&amp;&amp;0===n||r&gt;0){let e=window.getComputedStyle(o[r]).stopColor.match(/^rgb\s*\(\s*(\d+)\s*,\s*(\d+)\s*,\s*(\d+)\s*\)$/i),a=window.getComputedStyle(o[r]).stopOpacity,h=255;a&amp;&amp;(h=Math.floor(255*a)),e&amp;&amp;(0===i?(s[t][n]=[],s[t][n][0]=Math.floor(e[1]),s[t][n][1]=Math.floor(e[2]),s[t][n][2]=Math.floor(e[3]),s[t][n][3]=h):1===i?(s[t][n+1]=[],s[t][n+1][0]=Math.floor(e[1]),s[t][n+1][1]=Math.floor(e[2]),s[t][n+1][2]=Math.floor(e[3]),s[t][n+1][3]=h):2===i?(s[t+1][n+1]=[],s[t+1][n+1][0]=Math.floor(e[1]),s[t+1][n+1][1]=Math.floor(e[2]),s[t+1][n+1][2]=Math.floor(e[3]),s[t+1][n+1][3]=h):3===i&amp;&amp;(s[t+1][n]=[],s[t+1][n][0]=Math.floor(e[1]),s[t+1][n][1]=Math.floor(e[2]),s[t+1][n][2]=Math.floor(e[3]),s[t+1][n][3]=h))}}e[3*t+1][3*n+1]=new x,e[3*t+1][3*n+2]=new x,e[3*t+2][3*n+1]=new x,e[3*t+2][3*n+2]=new x,e[3*t+1][3*n+1].x=(-4*e[3*t][3*n].x+6*(e[3*t][3*n+1].x+e[3*t+1][3*n].x)+-2*(e[3*t][3*n+3].x+e[3*t+3][3*n].x)+3*(e[3*t+3][3*n+1].x+e[3*t+1][3*n+3].x)+-1*e[3*t+3][3*n+3].x)/9,e[3*t+1][3*n+2].x=(-4*e[3*t][3*n+3].x+6*(e[3*t][3*n+2].x+e[3*t+1][3*n+3].x)+-2*(e[3*t][3*n].x+e[3*t+3][3*n+3].x)+3*(e[3*t+3][3*n+2].x+e[3*t+1][3*n].x)+-1*e[3*t+3][3*n].x)/9,e[3*t+2][3*n+1].x=(-4*e[3*t+3][3*n].x+6*(e[3*t+3][3*n+1].x+e[3*t+2][3*n].x)+-2*(e[3*t+3][3*n+3].x+e[3*t][3*n].x)+3*(e[3*t][3*n+1].x+e[3*t+2][3*n+3].x)+-1*e[3*t][3*n+3].x)/9,e[3*t+2][3*n+2].x=(-4*e[3*t+3][3*n+3].x+6*(e[3*t+3][3*n+2].x+e[3*t+2][3*n+3].x)+-2*(e[3*t+3][3*n].x+e[3*t][3*n+3].x)+3*(e[3*t][3*n+2].x+e[3*t+2][3*n].x)+-1*e[3*t][3*n].x)/9,e[3*t+1][3*n+1].y=(-4*e[3*t][3*n].y+6*(e[3*t][3*n+1].y+e[3*t+1][3*n].y)+-2*(e[3*t][3*n+3].y+e[3*t+3][3*n].y)+3*(e[3*t+3][3*n+1].y+e[3*t+1][3*n+3].y)+-1*e[3*t+3][3*n+3].y)/9,e[3*t+1][3*n+2].y=(-4*e[3*t][3*n+3].y+6*(e[3*t][3*n+2].y+e[3*t+1][3*n+3].y)+-2*(e[3*t][3*n].y+e[3*t+3][3*n+3].y)+3*(e[3*t+3][3*n+2].y+e[3*t+1][3*n].y)+-1*e[3*t+3][3*n].y)/9,e[3*t+2][3*n+1].y=(-4*e[3*t+3][3*n].y+6*(e[3*t+3][3*n+1].y+e[3*t+2][3*n].y)+-2*(e[3*t+3][3*n+3].y+e[3*t][3*n].y)+3*(e[3*t][3*n+1].y+e[3*t+2][3*n+3].y)+-1*e[3*t][3*n+3].y)/9,e[3*t+2][3*n+2].y=(-4*e[3*t+3][3*n+3].y+6*(e[3*t+3][3*n+2].y+e[3*t+2][3*n+3].y)+-2*(e[3*t+3][3*n].y+e[3*t][3*n+3].y)+3*(e[3*t][3*n+2].y+e[3*t+2][3*n].y)+-1*e[3*t][3*n].y)/9}}this.nodes=e,this.colors=s}paintMesh(t,e){let s=(this.nodes.length-1)/3,r=(this.nodes[0].length-1)/3;if(&quot;bilinear&quot;===this.type||s&lt;2||r&lt;2){let n;for(let o=0;o&lt;s;++o)for(let s=0;s&lt;r;++s){let r=[];for(let t=3*o,e=3*o+4;t&lt;e;++t)r.push(this.nodes[t].slice(3*s,3*s+4));let i=[];i.push(this.colors[o].slice(s,s+2)),i.push(this.colors[o+1].slice(s,s+2)),(n=new m(r,i)).paint(t,e)}}else{let n,o,a,h,l,d,u;const x=s,g=r;s++,r++;let w=new Array(s);for(let t=0;t&lt;s;++t){w[t]=new Array(r);for(let e=0;e&lt;r;++e)w[t][e]=[],w[t][e][0]=this.nodes[3*t][3*e],w[t][e][1]=this.colors[t][e]}for(let t=0;t&lt;s;++t)for(let e=0;e&lt;r;++e)0!==t&amp;&amp;t!==x&amp;&amp;(n=i(w[t-1][e][0],w[t][e][0]),o=i(w[t+1][e][0],w[t][e][0]),w[t][e][2]=c(w[t-1][e][1],w[t][e][1],w[t+1][e][1],n,o)),0!==e&amp;&amp;e!==g&amp;&amp;(n=i(w[t][e-1][0],w[t][e][0]),o=i(w[t][e+1][0],w[t][e][0]),w[t][e][3]=c(w[t][e-1][1],w[t][e][1],w[t][e+1][1],n,o));for(let t=0;t&lt;r;++t){w[0][t][2]=[],w[x][t][2]=[];for(let e=0;e&lt;4;++e)n=i(w[1][t][0],w[0][t][0]),o=i(w[x][t][0],w[x-1][t][0]),w[0][t][2][e]=n&gt;0?2*(w[1][t][1][e]-w[0][t][1][e])/n-w[1][t][2][e]:0,w[x][t][2][e]=o&gt;0?2*(w[x][t][1][e]-w[x-1][t][1][e])/o-w[x-1][t][2][e]:0}for(let t=0;t&lt;s;++t){w[t][0][3]=[],w[t][g][3]=[];for(let e=0;e&lt;4;++e)n=i(w[t][1][0],w[t][0][0]),o=i(w[t][g][0],w[t][g-1][0]),w[t][0][3][e]=n&gt;0?2*(w[t][1][1][e]-w[t][0][1][e])/n-w[t][1][3][e]:0,w[t][g][3][e]=o&gt;0?2*(w[t][g][1][e]-w[t][g-1][1][e])/o-w[t][g-1][3][e]:0}for(let s=0;s&lt;x;++s)for(let r=0;r&lt;g;++r){let n=i(w[s][r][0],w[s+1][r][0]),o=i(w[s][r+1][0],w[s+1][r+1][0]),c=i(w[s][r][0],w[s][r+1][0]),x=i(w[s+1][r][0],w[s+1][r+1][0]),g=[[],[],[],[]];for(let t=0;t&lt;4;++t){(d=[])[0]=w[s][r][1][t],d[1]=w[s+1][r][1][t],d[2]=w[s][r+1][1][t],d[3]=w[s+1][r+1][1][t],d[4]=w[s][r][2][t]*n,d[5]=w[s+1][r][2][t]*n,d[6]=w[s][r+1][2][t]*o,d[7]=w[s+1][r+1][2][t]*o,d[8]=w[s][r][3][t]*c,d[9]=w[s+1][r][3][t]*x,d[10]=w[s][r+1][3][t]*c,d[11]=w[s+1][r+1][3][t]*x,d[12]=0,d[13]=0,d[14]=0,d[15]=0,u=f(d);for(let e=0;e&lt;9;++e){g[t][e]=[];for(let s=0;s&lt;9;++s)g[t][e][s]=p(u,e/8,s/8),g[t][e][s]&gt;255?g[t][e][s]=255:g[t][e][s]&lt;0&amp;&amp;(g[t][e][s]=0)}}h=[];for(let t=3*s,e=3*s+4;t&lt;e;++t)h.push(this.nodes[t].slice(3*r,3*r+4));l=y(h);for(let s=0;s&lt;8;++s)for(let r=0;r&lt;8;++r)(a=new m(l[s][r],[[[g[0][s][r],g[1][s][r],g[2][s][r],g[3][s][r]],[g[0][s][r+1],g[1][s][r+1],g[2][s][r+1],g[3][s][r+1]]],[[g[0][s+1][r],g[1][s+1][r],g[2][s+1][r],g[3][s+1][r]],[g[0][s+1][r+1],g[1][s+1][r+1],g[2][s+1][r+1],g[3][s+1][r+1]]]])).paint(t,e)}}}transform(t){if(t instanceof x)for(let e=0,s=this.nodes.length;e&lt;s;++e)for(let s=0,r=this.nodes[0].length;s&lt;r;++s)this.nodes[e][s]=this.nodes[e][s].add(t);else if(t instanceof g)for(let e=0,s=this.nodes.length;e&lt;s;++e)for(let s=0,r=this.nodes[0].length;s&lt;r;++s)this.nodes[e][s]=this.nodes[e][s].transform(t)}scale(t){for(let e=0,s=this.nodes.length;e&lt;s;++e)for(let s=0,r=this.nodes[0].length;s&lt;r;++s)this.nodes[e][s]=this.nodes[e][s].scale(t)}}document.querySelectorAll(&quot;rect,circle,ellipse,path,text&quot;).forEach((r,n)=&gt;{let o=r.getAttribute(&quot;id&quot;);o||(o=&quot;patchjs_shape&quot;+n,r.setAttribute(&quot;id&quot;,o));const i=r.style.fill.match(/^url\(\s*&quot;?\s*#([^\s&quot;]+)&quot;?\s*\)/),a=r.style.stroke.match(/^url\(\s*&quot;?\s*#([^\s&quot;]+)&quot;?\s*\)/);if(i&amp;&amp;i[1]){const a=document.getElementById(i[1]);if(a&amp;&amp;&quot;meshgradient&quot;===a.nodeName){const i=r.getBBox();let l=document.createElementNS(s,&quot;canvas&quot;);d(l,{width:i.width,height:i.height});const c=l.getContext(&quot;2d&quot;);let u=c.createImageData(i.width,i.height);const f=new b(a);&quot;objectBoundingBox&quot;===a.getAttribute(&quot;gradientUnits&quot;)&amp;&amp;f.scale(new x(i.width,i.height));const p=a.getAttribute(&quot;gradientTransform&quot;);null!=p&amp;&amp;f.transform(h(p)),&quot;userSpaceOnUse&quot;===a.getAttribute(&quot;gradientUnits&quot;)&amp;&amp;f.transform(new x(-i.x,-i.y)),f.paintMesh(u.data,l.width),c.putImageData(u,0,0);const y=document.createElementNS(t,&quot;image&quot;);d(y,{width:i.width,height:i.height,x:i.x,y:i.y});let g=l.toDataURL();y.setAttributeNS(e,&quot;xlink:href&quot;,g),r.parentNode.insertBefore(y,r),r.style.fill=&quot;none&quot;;const w=document.createElementNS(t,&quot;use&quot;);w.setAttributeNS(e,&quot;xlink:href&quot;,&quot;#&quot;+o);const m=&quot;patchjs_clip&quot;+n,M=document.createElementNS(t,&quot;clipPath&quot;);M.setAttribute(&quot;id&quot;,m),M.appendChild(w),r.parentElement.insertBefore(M,r),y.setAttribute(&quot;clip-path&quot;,&quot;url(#&quot;+m+&quot;)&quot;),u=null,l=null,g=null}}if(a&amp;&amp;a[1]){const o=document.getElementById(a[1]);if(o&amp;&amp;&quot;meshgradient&quot;===o.nodeName){const i=parseFloat(r.style.strokeWidth.slice(0,-2))*(parseFloat(r.style.strokeMiterlimit)||parseFloat(r.getAttribute(&quot;stroke-miterlimit&quot;))||1),a=r.getBBox(),l=Math.trunc(a.width+i),c=Math.trunc(a.height+i),u=Math.trunc(a.x-i/2),f=Math.trunc(a.y-i/2);let p=document.createElementNS(s,&quot;canvas&quot;);d(p,{width:l,height:c});const y=p.getContext(&quot;2d&quot;);let g=y.createImageData(l,c);const w=new b(o);&quot;objectBoundingBox&quot;===o.getAttribute(&quot;gradientUnits&quot;)&amp;&amp;w.scale(new x(l,c));const m=o.getAttribute(&quot;gradientTransform&quot;);null!=m&amp;&amp;w.transform(h(m)),&quot;userSpaceOnUse&quot;===o.getAttribute(&quot;gradientUnits&quot;)&amp;&amp;w.transform(new x(-u,-f)),w.paintMesh(g.data,p.width),y.putImageData(g,0,0);const M=document.createElementNS(t,&quot;image&quot;);d(M,{width:l,height:c,x:0,y:0});let S=p.toDataURL();M.setAttributeNS(e,&quot;xlink:href&quot;,S);const k=&quot;pattern_clip&quot;+n,A=document.createElementNS(t,&quot;pattern&quot;);d(A,{id:k,patternUnits:&quot;userSpaceOnUse&quot;,width:l,height:c,x:u,y:f}),A.appendChild(M),o.parentNode.appendChild(A),r.style.stroke=&quot;url(#&quot;+k+&quot;)&quot;,g=null,p=null,S=null}}})}();
</script>
</svg>
