<?xml version="1.0" encoding="UTF-8" standalone="no"?>
<svg
   xmlns:dc="http://purl.org/dc/elements/1.1/"
   xmlns:cc="http://creativecommons.org/ns#"
   xmlns:rdf="http://www.w3.org/1999/02/22-rdf-syntax-ns#"
   xmlns:svg="http://www.w3.org/2000/svg"
   xmlns="http://www.w3.org/2000/svg"
   xmlns:sodipodi="http://sodipodi.sourceforge.net/DTD/sodipodi-0.dtd"
   xmlns:inkscape="http://www.inkscape.org/namespaces/inkscape"
   width="42.262421mm"
   height="44.815506mm"
   viewBox="0 0 42.262422 44.815506"
   version="1.1"
   id="svg8"
   inkscape:version="1.0.1 (3bc2e813f5, 2020-09-07)"
   sodipodi:docname="favicon.svg">
  <defs
     id="defs2">
    <inkscape:perspective
       sodipodi:type="inkscape:persp3d"
       inkscape:vp_x="0 : -103.6845 : 1"
       inkscape:vp_y="0 : 999.99998 : 0"
       inkscape:vp_z="210.00002 : -103.6845 : 1"
       inkscape:persp3d-origin="105 : -153.1845 : 1"
       id="perspective73" />
  </defs>
  <sodipodi:namedview
     id="base"
     pagecolor="#ffffff"
     bordercolor="#666666"
     borderopacity="1.0"
     inkscape:pageopacity="0.0"
     inkscape:pageshadow="2"
     inkscape:zoom="0.6779608"
     inkscape:cx="-60.96897"
     inkscape:cy="93.740514"
     inkscape:document-units="mm"
     inkscape:current-layer="layer1"
     inkscape:document-rotation="0"
     showgrid="false" />
  <metadata
     id="metadata5">
    <rdf:RDF>
      <cc:Work
         rdf:about="">
        <dc:format>image/svg+xml</dc:format>
        <dc:type
           rdf:resource="http://purl.org/dc/dcmitype/StillImage" />
        <dc:title />
      </cc:Work>
    </rdf:RDF>
  </metadata>
  <g
     inkscape:label="Layer 1"
     inkscape:groupmode="layer"
     id="layer1"
     transform="translate(-73.458599,-71.696905)">
    <path
       id="path142"
       style="fill:#000080;stroke-width:0.183152"
       d="M 95.595978,71.697063 V 82.900611 A 10.062444,11.203847 0 0 1 105.6585,94.104544 10.062444,11.203847 0 0 1 95.595978,105.30847 v 11.20394 A 20.124886,22.407692 0 0 0 115.72102,94.104544 20.124886,22.407692 0 0 0 95.595978,71.697063 Z" />
    <path
       id="path153"
       style="fill:#0000ff;stroke-width:0.183152"
       d="M 93.583298,71.696905 A 20.124886,22.407692 0 0 0 73.458599,94.104387 20.124886,22.407692 0 0 0 93.583298,116.51225 V 105.30832 A 10.062444,11.203847 0 0 1 83.521129,94.104387 10.062444,11.203847 0 0 1 93.583298,82.900453 Z" />
  </g>
</svg>
